<svg width="24" height="24" viewBox="0 0 24 24" fill="none" xmlns="http://www.w3.org/2000/svg">
<mask id="mask0_1903_5813" style="mask-type:alpha" maskUnits="userSpaceOnUse" x="0" y="0" width="24" height="24">
<circle cx="12" cy="12" r="12" fill="#C4C4C4"/>
</mask>
<g mask="url(#mask0_1903_5813)">
<g clipPath="url(#clip0_1903_5813)">
<path d="M29.6887 -0.311035H-6.31128V23.689H29.6887V-0.311035Z" fill="#F2F2F2"/>
<path d="M29.6888 -0.311035H-6.31122V2.08896H29.6888V-0.311035Z" fill="#EB5757"/>
<path d="M29.6887 10.4888H-6.31134V12.8888H29.6887V10.4888Z" fill="#EB5757"/>
<path d="M29.6887 5.08881H-6.31134V7.48881H29.6887V5.08881Z" fill="#EB5757"/>
<path d="M29.6887 15.8887H-6.31134V18.2887H29.6887V15.8887Z" fill="#EB5757"/>
<path d="M29.6887 21.2892H-6.31134V23.6892H29.6887V21.2892Z" fill="#EB5757"/>
<path d="M12.2887 -3.05176e-05H-6.31128V13.2H12.2887V-3.05176e-05Z" fill="#2F80ED"/>
<path d="M1.80022 0.900482L2.13703 1.93707L3.22696 1.93707L2.34519 2.57772L2.682 3.61431L1.80022 2.97366L0.918441 3.61431L1.25525 2.57772L0.373472 1.93707L1.46341 1.93707L1.80022 0.900482Z" fill="#F2F2F2"/>
<path d="M6.00041 0.900482L6.33722 1.93707L7.42716 1.93707L6.54538 2.57772L6.88219 3.61431L6.00041 2.97366L5.11864 3.61431L5.45544 2.57772L4.57367 1.93707L5.6636 1.93707L6.00041 0.900482Z" fill="#F2F2F2"/>
<path d="M10.2001 0.900482L10.5369 1.93707L11.6269 1.93707L10.7451 2.57772L11.0819 3.61431L10.2001 2.97366L9.31834 3.61431L9.65515 2.57772L8.77337 1.93707L9.86331 1.93707L10.2001 0.900482Z" fill="#F2F2F2"/>
<path d="M1.80022 5.10068L2.13703 6.13727L3.22696 6.13727L2.34519 6.77792L2.682 7.81451L1.80022 7.17386L0.918441 7.81451L1.25525 6.77792L0.373472 6.13727L1.46341 6.13727L1.80022 5.10068Z" fill="#F2F2F2"/>
<path d="M6.00041 5.10068L6.33722 6.13727L7.42716 6.13727L6.54538 6.77792L6.88219 7.81451L6.00041 7.17386L5.11864 7.81451L5.45544 6.77792L4.57367 6.13727L5.6636 6.13727L6.00041 5.10068Z" fill="#F2F2F2"/>
<path d="M10.2001 5.10068L10.5369 6.13727L11.6269 6.13727L10.7451 6.77792L11.0819 7.81451L10.2001 7.17386L9.31834 7.81451L9.65515 6.77792L8.77337 6.13727L9.86331 6.13727L10.2001 5.10068Z" fill="#F2F2F2"/>
<path d="M1.80022 9.29984L2.13703 10.3364H3.22696L2.34519 10.9771L2.682 12.0137L1.80022 11.373L0.918441 12.0137L1.25525 10.9771L0.373472 10.3364H1.46341L1.80022 9.29984Z" fill="#F2F2F2"/>
<path d="M6.00041 9.29984L6.33722 10.3364H7.42716L6.54538 10.9771L6.88219 12.0137L6.00041 11.373L5.11864 12.0137L5.45544 10.9771L4.57367 10.3364H5.6636L6.00041 9.29984Z" fill="#F2F2F2"/>
<path d="M10.2001 9.29984L10.5369 10.3364H11.6269L10.7451 10.9771L11.0819 12.0137L10.2001 11.373L9.31834 12.0137L9.65515 10.9771L8.77337 10.3364H9.86331L10.2001 9.29984Z" fill="#F2F2F2"/>
</g>
</g>
<defs>
<clipPath id="clip0_1903_5813">
<rect width="24" height="24" fill="white"/>
</clipPath>
</defs>
</svg>
