<svg width="24" height="24" viewBox="0 0 24 24" fill="none" xmlns="http://www.w3.org/2000/svg">
<mask id="mask0_1888_5766" style="mask-type:alpha" maskUnits="userSpaceOnUse" x="0" y="0" width="25" height="25">
<circle cx="12.2716" cy="12.2716" r="12.2716" fill="#C4C4C4"/>
</mask>
<g mask="url(#mask0_1888_5766)">
<g clipPath="url(#clip0_1888_5766)">
<path d="M24.5433 0H0V12H24.5433V0Z" fill="#56CCF2"/>
<path d="M24.5433 13.6323H0V25.6323H24.5433V13.6323Z" fill="#219653"/>
<path d="M24.5433 11.9996H0" stroke="#EB5757" strokeWidth="11"/>
<path d="M24.5433 11.9996H0" stroke="#F2F2F2" strokeWidth="10"/>
<path fillRule="evenodd" clipRule="evenodd" d="M7.56268 0.640302C6.10879 0.876107 5.0002 2.11149 5.0002 3.60007C5.0002 5.08865 6.10879 6.32403 7.56268 6.55984C7.39814 6.58652 7.22918 6.60041 7.05691 6.60041C5.36235 6.60041 3.98865 5.25711 3.98865 3.60007C3.98865 1.94303 5.36235 0.599731 7.05691 0.599731C7.22918 0.599731 7.39814 0.613615 7.56268 0.640302Z" fill="#F2F2F2"/>
<path d="M9.51148 5.40027L9.64925 5.8149H10.0951L9.7344 6.07116L9.87217 6.4858L9.51148 6.22954L9.15078 6.4858L9.28856 6.07116L8.92786 5.8149H9.37371L9.51148 5.40027Z" fill="#F2F2F2"/>
<path d="M11.9661 5.40027L12.1039 5.8149H12.5497L12.1891 6.07116L12.3268 6.4858L11.9661 6.22954L11.6054 6.4858L11.7432 6.07116L11.3825 5.8149H11.8284L11.9661 5.40027Z" fill="#F2F2F2"/>
<path d="M14.4207 5.40027L14.5585 5.8149H15.0043L14.6436 6.07116L14.7814 6.4858L14.4207 6.22954L14.06 6.4858L14.1978 6.07116L13.8371 5.8149H14.2829L14.4207 5.40027Z" fill="#F2F2F2"/>
<path d="M17.0288 5.40027L17.1665 5.8149H17.6124L17.2517 6.07116L17.3894 6.4858L17.0288 6.22954L16.6681 6.4858L16.8058 6.07116L16.4451 5.8149H16.891L17.0288 5.40027Z" fill="#F2F2F2"/>
<path d="M19.6368 5.40027L19.7746 5.8149H20.2204L19.8597 6.07116L19.9975 6.4858L19.6368 6.22954L19.2761 6.4858L19.4139 6.07116L19.0532 5.8149H19.499L19.6368 5.40027Z" fill="#F2F2F2"/>
<path d="M11.9661 3L12.1039 3.41464H12.5497L12.1891 3.6709L12.3268 4.08553L11.9661 3.82927L11.6054 4.08553L11.7432 3.6709L11.3825 3.41464H11.8284L11.9661 3Z" fill="#F2F2F2"/>
<path d="M14.4207 3L14.5585 3.41464H15.0043L14.6436 3.6709L14.7814 4.08553L14.4207 3.82927L14.06 4.08553L14.1978 3.6709L13.8371 3.41464H14.2829L14.4207 3Z" fill="#F2F2F2"/>
<path d="M17.0288 3L17.1665 3.41464H17.6124L17.2517 3.6709L17.3894 4.08553L17.0288 3.82927L16.6681 4.08553L16.8058 3.6709L16.4451 3.41464H16.891L17.0288 3Z" fill="#F2F2F2"/>
<path d="M19.6368 3L19.7746 3.41464H20.2204L19.8597 3.6709L19.9975 4.08553L19.6368 3.82927L19.2761 4.08553L19.4139 3.6709L19.0532 3.41464H19.499L19.6368 3Z" fill="#F2F2F2"/>
<path d="M14.4207 0.599731L14.5585 1.01437H15.0043L14.6436 1.27063L14.7814 1.68526L14.4207 1.429L14.06 1.68526L14.1978 1.27063L13.8371 1.01437H14.2829L14.4207 0.599731Z" fill="#F2F2F2"/>
<path d="M17.0288 0.599731L17.1665 1.01437H17.6124L17.2517 1.27063L17.3894 1.68526L17.0288 1.429L16.6681 1.68526L16.8058 1.27063L16.4451 1.01437H16.891L17.0288 0.599731Z" fill="#F2F2F2"/>
<path d="M19.6368 0.599731L19.7746 1.01437H20.2204L19.8597 1.27063L19.9975 1.68526L19.6368 1.429L19.2761 1.68526L19.4139 1.27063L19.0532 1.01437H19.499L19.6368 0.599731Z" fill="#F2F2F2"/>
</g>
</g>
<defs>
<clipPath id="clip0_1888_5766">
<rect width="24" height="24" fill="white"/>
</clipPath>
</defs>
</svg>
