<svg width="40" height="41" viewBox="0 0 40 41" fill="none" xmlns="http://www.w3.org/2000/svg">
<g filter="url(#filter0_d_366_161)">
<path d="M21.6 28.9C24.8277 28.4893 27.7778 26.865 29.8509 24.3573C31.924 21.8495 32.9644 18.6465 32.7606 15.3992C32.5569 12.1519 31.1243 9.104 28.754 6.87503C26.3837 4.64605 23.2537 3.40325 20 3.39922C16.7423 3.39679 13.6063 4.63656 11.2309 6.8659C8.85557 9.09525 7.41958 12.1464 7.21559 15.3977C7.01159 18.649 8.05494 21.8557 10.133 24.3644C12.2111 26.8732 15.1676 28.4952 18.4 28.9V19.3992H15.2V16.1992H18.4V13.5528C18.4 11.4136 18.624 10.6376 19.04 9.85522C19.4498 9.08112 20.0831 8.44832 20.8576 8.03922C21.4688 7.71122 22.2288 7.51442 23.5568 7.42962C24.0832 7.39602 24.7648 7.43762 25.6016 7.55762V10.5976H24.8C23.3328 10.5976 22.7264 10.6664 22.3648 10.86C22.149 10.971 21.9734 11.1467 21.8624 11.3624C21.6704 11.724 21.6 12.0824 21.6 13.5512V16.1992H25.6L24.8 19.3992H21.6V28.9ZM20 32.1992C11.1632 32.1992 4 25.036 4 16.1992C4 7.36242 11.1632 0.199219 20 0.199219C28.8368 0.199219 36 7.36242 36 16.1992C36 25.036 28.8368 32.1992 20 32.1992Z" fill="url(#paint0_linear_366_161)"/>
</g>
<defs>
<filter id="filter0_d_366_161" x="0" y="0.199219" width="40" height="40" filterUnits="userSpaceOnUse" color-interpolation-filters="sRGB">
<feFlood flood-opacity="0" result="BackgroundImageFix"/>
<feColorMatrix in="SourceAlpha" type="matrix" values="0 0 0 0 0 0 0 0 0 0 0 0 0 0 0 0 0 0 127 0" result="hardAlpha"/>
<feOffset dy="4"/>
<feGaussianBlur stdDeviation="2"/>
<feComposite in2="hardAlpha" operator="out"/>
<feColorMatrix type="matrix" values="0 0 0 0 0 0 0 0 0 0 0 0 0 0 0 0 0 0 0.25 0"/>
<feBlend mode="normal" in2="BackgroundImageFix" result="effect1_dropShadow_366_161"/>
<feBlend mode="normal" in="SourceGraphic" in2="effect1_dropShadow_366_161" result="shape"/>
</filter>
<linearGradient id="paint0_linear_366_161" x1="-5.38" y1="16.1992" x2="36.2089" y2="12.8373" gradientUnits="userSpaceOnUse">
<stop stop-color="#EDEDE4"/>
<stop offset="1" stop-color="#F8F2EB"/>
</linearGradient>
</defs>
</svg>
