<svg width="40" height="41" viewBox="0 0 40 41" fill="none" xmlns="http://www.w3.org/2000/svg">
<g filter="url(#filter0_d_366_164)">
<path d="M20 11.8006C18.727 11.8006 17.5061 12.3063 16.6059 13.2065C15.7057 14.1066 15.2 15.3275 15.2 16.6006C15.2 17.8736 15.7057 19.0945 16.6059 19.9947C17.5061 20.8949 18.727 21.4006 20 21.4006C21.273 21.4006 22.4939 20.8949 23.3941 19.9947C24.2943 19.0945 24.8 17.8736 24.8 16.6006C24.8 15.3275 24.2943 14.1066 23.3941 13.2065C22.4939 12.3063 21.273 11.8006 20 11.8006ZM20 8.60059C22.1217 8.60059 24.1566 9.44344 25.6569 10.9437C27.1571 12.444 28 14.4789 28 16.6006C28 18.7223 27.1571 20.7571 25.6569 22.2574C24.1566 23.7577 22.1217 24.6006 20 24.6006C17.8783 24.6006 15.8434 23.7577 14.3431 22.2574C12.8429 20.7571 12 18.7223 12 16.6006C12 14.4789 12.8429 12.444 14.3431 10.9437C15.8434 9.44344 17.8783 8.60059 20 8.60059ZM30.4 8.20059C30.4 8.73102 30.1893 9.23973 29.8142 9.6148C29.4391 9.98987 28.9304 10.2006 28.4 10.2006C27.8696 10.2006 27.3609 9.98987 26.9858 9.6148C26.6107 9.23973 26.4 8.73102 26.4 8.20059C26.4 7.67015 26.6107 7.16145 26.9858 6.78637C27.3609 6.4113 27.8696 6.20059 28.4 6.20059C28.9304 6.20059 29.4391 6.4113 29.8142 6.78637C30.1893 7.16145 30.4 7.67015 30.4 8.20059ZM20 3.80059C16.0416 3.80059 15.3952 3.81179 13.5536 3.89339C12.2992 3.95259 11.4576 4.12059 10.6768 4.42459C9.9824 4.69339 9.4816 5.01499 8.9488 5.54939C8.44801 6.03322 8.06296 6.62392 7.8224 7.27739C7.5184 8.06139 7.3504 8.90139 7.2928 10.1542C7.2096 11.9206 7.2 12.5382 7.2 16.6006C7.2 20.559 7.2112 21.2054 7.2928 23.047C7.352 24.2998 7.52 25.143 7.8224 25.9222C8.0944 26.6182 8.4144 27.119 8.9456 27.6502C9.4848 28.1878 9.9856 28.5094 10.6736 28.775C11.464 29.0806 12.3056 29.2502 13.5536 29.3078C15.32 29.391 15.9376 29.4006 20 29.4006C23.9584 29.4006 24.6048 29.3894 26.4464 29.3078C27.6976 29.2486 28.5408 29.0806 29.3216 28.7782C30.0144 28.5078 30.5184 28.1862 31.0496 27.655C31.5888 27.1158 31.9104 26.615 32.176 25.927C32.48 25.1382 32.6496 24.295 32.7072 23.047C32.7904 21.2806 32.8 20.663 32.8 16.6006C32.8 12.6422 32.7888 11.9958 32.7072 10.1542C32.648 8.90299 32.48 8.05819 32.176 7.27739C31.9349 6.62459 31.5505 6.03412 31.0512 5.54939C30.5676 5.04834 29.9768 4.66325 29.3232 4.42299C28.5392 4.11899 27.6976 3.95099 26.4464 3.89339C24.68 3.81019 24.0624 3.80059 20 3.80059ZM20 0.600586C24.3472 0.600586 24.8896 0.616586 26.5952 0.696586C28.2992 0.776586 29.4592 1.04379 30.48 1.44059C31.536 1.84699 32.4256 2.39739 33.3152 3.28539C34.1288 4.08522 34.7583 5.05273 35.16 6.12059C35.5552 7.13979 35.824 8.30139 35.904 10.0054C35.9792 11.711 36 12.2534 36 16.6006C36 20.9478 35.984 21.4902 35.904 23.1958C35.824 24.8998 35.5552 26.0598 35.16 27.0806C34.7595 28.149 34.1298 29.1168 33.3152 29.9158C32.5151 30.7291 31.5477 31.3586 30.48 31.7606C29.4608 32.1558 28.2992 32.4246 26.5952 32.5046C24.8896 32.5798 24.3472 32.6006 20 32.6006C15.6528 32.6006 15.1104 32.5846 13.4048 32.5046C11.7008 32.4246 10.5408 32.1558 9.52 31.7606C8.45172 31.3597 7.48404 30.7301 6.6848 29.9158C5.87105 29.1161 5.24149 28.1485 4.84 27.0806C4.4432 26.0614 4.176 24.8998 4.096 23.1958C4.0208 21.4902 4 20.9478 4 16.6006C4 12.2534 4.016 11.711 4.096 10.0054C4.176 8.29979 4.4432 7.14139 4.84 6.12059C5.24038 5.05207 5.87009 4.0843 6.6848 3.28539C7.48427 2.47136 8.45189 1.84175 9.52 1.44059C10.5408 1.04379 11.6992 0.776586 13.4048 0.696586C15.1104 0.621386 15.6528 0.600586 20 0.600586Z" fill="url(#paint0_linear_366_164)"/>
</g>
<defs>
<filter id="filter0_d_366_164" x="0" y="0.600586" width="40" height="40" filterUnits="userSpaceOnUse" color-interpolation-filters="sRGB">
<feFlood flood-opacity="0" result="BackgroundImageFix"/>
<feColorMatrix in="SourceAlpha" type="matrix" values="0 0 0 0 0 0 0 0 0 0 0 0 0 0 0 0 0 0 127 0" result="hardAlpha"/>
<feOffset dy="4"/>
<feGaussianBlur stdDeviation="2"/>
<feComposite in2="hardAlpha" operator="out"/>
<feColorMatrix type="matrix" values="0 0 0 0 0 0 0 0 0 0 0 0 0 0 0 0 0 0 0.25 0"/>
<feBlend mode="normal" in2="BackgroundImageFix" result="effect1_dropShadow_366_164"/>
<feBlend mode="normal" in="SourceGraphic" in2="effect1_dropShadow_366_164" result="shape"/>
</filter>
<linearGradient id="paint0_linear_366_164" x1="-5.38" y1="16.6006" x2="36.2089" y2="13.2387" gradientUnits="userSpaceOnUse">
<stop stop-color="#EDEDE4"/>
<stop offset="1" stop-color="#F8F2EB"/>
</linearGradient>
</defs>
</svg>
