<svg width="301" height="65" viewBox="0 0 301 65" fill="none" xmlns="http://www.w3.org/2000/svg">
<path d="M5.2002 26.9752C5.2002 22.0547 5.2002 17.1476 5.2002 12.2271C5.2002 10.879 5.40241 9.55792 5.82031 8.27724C6.26518 6.92916 6.93922 5.68892 7.82896 4.58349C8.96135 3.15452 10.3634 2.03561 11.9945 1.22676C13.2483 0.606638 14.5559 0.215693 15.9444 0.0808849C16.4567 0.0269615 16.969 0.0134806 17.4812 0.0134806C24.9631 0.0134806 32.4315 0.0269617 39.9134 0C42.7848 0 45.3462 0.876255 47.6109 2.62877C49.3904 4.00381 50.6711 5.7698 51.453 7.8863C51.9922 9.32875 52.2349 10.8116 52.2349 12.3485C52.2349 22.0007 52.2349 31.653 52.2349 41.3053C52.2349 44.015 51.8035 46.6437 50.9138 49.1916C50.0779 51.5777 48.9186 53.7751 47.3548 55.7568C46.9234 56.3095 46.4381 56.8353 45.9798 57.361C45.0226 58.426 43.9442 59.3562 42.8252 60.2324C41.9894 60.893 41.0862 61.4592 40.156 61.9849C38.2148 63.0634 36.1657 63.8723 33.9953 64.3711C33.0112 64.6002 32.0271 64.7755 31.016 64.8564C30.1667 64.9238 29.304 65.0316 28.4547 64.9912C27.3492 64.9372 26.2573 64.8833 25.1653 64.7081C23.8712 64.5059 22.6175 64.2228 21.3772 63.8049C19.9482 63.333 18.5597 62.7264 17.2521 61.9849C16.2006 61.3918 15.203 60.7312 14.2593 59.9763C13.1135 59.0731 12.0619 58.0755 11.1048 56.9835C9.95894 55.6894 8.97483 54.3009 8.13902 52.791C6.93923 50.5936 6.08993 48.2614 5.63158 45.7944C5.46981 44.9047 5.34848 44.0015 5.28108 43.0848C5.22716 42.3433 5.21368 41.5884 5.21368 40.847C5.2002 36.223 5.2002 31.5991 5.2002 26.9752Z" fill="#0B653F"/>
<path d="M28.7241 1.10547C32.4853 1.10547 36.2599 1.10547 40.0211 1.10547C45.0359 1.11895 49.3903 4.4622 50.6979 9.27486C50.9406 10.1916 51.0754 11.1217 51.0754 12.0654C51.0754 18.9406 51.0754 25.8293 51.0754 32.7046C51.0754 33.1899 51.1428 33.1495 50.644 33.1629C48.4196 33.2438 46.2088 33.4865 44.0114 33.8909C40.8973 34.4571 37.8372 35.2929 34.8714 36.3849C32.7549 37.1667 30.7193 38.1374 28.805 39.3237C28.5489 39.4854 28.3871 39.4585 28.1444 39.3102C26.3785 38.1508 24.4642 37.3015 22.496 36.5466C18.8561 35.1311 15.0815 34.147 11.226 33.5134C9.7296 33.2708 8.20627 33.109 6.68293 33.0146C6.34591 32.9877 6.35939 33.0281 6.35939 32.6507C6.35939 25.735 6.33243 18.8328 6.37287 11.9171C6.37287 6.78091 10.1745 2.29178 15.2433 1.32116C15.9847 1.18635 16.7262 1.11895 17.4676 1.10547C21.2153 1.10547 24.9764 1.10547 28.7241 1.10547Z" fill="white"/>
<path d="M23.4805 5.54053V6.30894H22.1324V10.3936H21.1618V6.30894H19.8271V5.54053H23.4805Z" fill="#0C653F"/>
<path d="M27.9961 9.23447C27.7939 9.59845 27.4973 9.88155 27.1198 10.0972C26.7424 10.2995 26.284 10.4073 25.7583 10.4073H24.0327V5.5542H25.7583C26.284 5.5542 26.7424 5.64856 27.1198 5.85078C27.4973 6.05299 27.7939 6.33609 27.9961 6.70007C28.1983 7.06405 28.2927 7.49544 28.2927 7.98075C28.2927 8.45258 28.1983 8.87049 27.9961 9.23447ZM26.8772 9.12662C27.1603 8.85701 27.3086 8.46606 27.3086 7.96727C27.3086 7.46848 27.1603 7.07753 26.8772 6.80792C26.5941 6.5383 26.1896 6.39001 25.6639 6.39001H24.9899V9.53105H25.6639C26.1896 9.53105 26.5941 9.39624 26.8772 9.12662Z" fill="#0C653F"/>
<path d="M31.9865 9.42299H30.0318L29.6813 10.4071H28.6567L30.4497 5.60791H31.5551L33.3346 10.4071H32.31L31.9865 9.42299ZM31.7304 8.69502L31.0159 6.64594L30.3014 8.69502H31.7304Z" fill="#0C653F"/>
<path d="M34.8039 5.54053V8.39847C34.8039 8.77593 34.8848 9.05903 35.0601 9.26124C35.2218 9.44997 35.4645 9.54434 35.788 9.54434C36.0981 9.54434 36.3407 9.44997 36.5025 9.26124C36.6643 9.07251 36.7587 8.78941 36.7587 8.39847V5.54053H37.7158V8.39847C37.7158 8.84334 37.6349 9.23428 37.4597 9.54434C37.2979 9.8544 37.0552 10.0836 36.7587 10.2319C36.4621 10.3802 36.1251 10.461 35.7476 10.461C35.1679 10.461 34.6961 10.2858 34.3456 9.93528C33.9951 9.58478 33.8198 9.07251 33.8198 8.39847V5.54053H34.8039Z" fill="#0C653F"/>
<path d="M51.0753 34.8477C51.0618 35.4679 51.1562 35.3735 50.563 35.5487C48.6487 36.1284 46.7749 36.789 44.9954 37.6922C42.2588 39.0672 39.7379 40.7658 37.4326 42.761C34.75 45.0797 32.3773 47.6815 30.463 50.6743C28.8858 53.1413 27.8073 55.797 27.3085 58.6819C27.0928 59.976 26.9311 61.2837 26.8906 62.5913C26.8771 62.8609 26.8502 63.144 26.8367 63.4137C26.8097 63.7102 26.7963 63.7237 26.5132 63.6968C25.7852 63.6024 25.0572 63.5215 24.3427 63.3732C20.986 62.6857 17.9259 61.2972 15.2027 59.2211C14.8522 58.965 14.8657 58.965 14.9736 58.5336C15.7285 55.5948 17.09 52.9121 18.7482 50.4046C22.6442 44.527 27.9691 40.3479 34.5208 37.7326C37.3248 36.6137 40.2232 35.7914 43.1755 35.1848C44.7527 34.8612 46.33 34.632 47.9342 34.4703C48.8914 34.3759 49.835 34.3489 50.7922 34.2681C50.9809 34.2546 51.0887 34.3085 51.0753 34.5107C51.0753 34.632 51.0753 34.7399 51.0753 34.8477Z" fill="#51AC33"/>
<path d="M51.0757 38.4877C50.9678 38.8382 50.7117 39.1618 50.3747 39.4853C48.9592 40.8469 47.5976 42.2758 46.3304 43.7722C44.2948 46.1853 42.8119 48.8949 41.9357 51.9416C41.4638 53.5997 41.1942 55.2849 41.0864 56.9969C41.0324 57.8732 41.019 58.736 41.0325 59.6122C41.0459 59.9492 40.9381 60.1649 40.6415 60.3537C38.5115 61.6883 36.2333 62.6589 33.7932 63.2386C32.0812 63.643 30.3287 63.8317 28.5627 63.8317C28.4953 63.8317 28.4279 63.8317 28.3605 63.8317C27.9695 63.8182 27.9695 63.8182 27.9695 63.4408C27.956 62.7398 28.0234 62.0253 28.0908 61.3243C28.2122 59.9627 28.4279 58.6146 28.7649 57.28C29.3985 54.8535 30.4769 52.6426 31.8924 50.58C33.6449 48.0322 35.7075 45.7674 38.0397 43.7453C40.3719 41.7231 42.9063 39.9976 45.6833 38.636C47.328 37.8272 49.0536 37.2205 50.7926 36.6813C51.0757 36.5869 51.0892 36.6139 51.1026 36.9105C51.0757 36.9239 51.1296 38.2855 51.0757 38.4877Z" fill="#51AC33"/>
<path d="M21.1209 45.5383C18.937 47.9109 17.1171 50.5532 15.6612 53.5459C15.5264 53.0471 15.405 52.6427 15.2972 52.2383C14.6366 49.8522 13.4773 47.7087 12.0483 45.7001C11.2934 44.6351 10.4845 43.624 9.6622 42.6129C9.21734 42.0737 8.70506 41.5749 8.16583 41.1166C7.64008 40.6582 7.11432 40.2134 6.54813 39.8359C6.44028 39.755 6.37288 39.6741 6.3594 39.5393C6.31895 39.2427 6.29199 36.7757 6.29199 36.6814C6.30547 36.3578 6.46724 36.3578 6.91211 36.56C8.20627 37.1262 9.44651 37.8138 10.6733 38.5013C12.7493 39.6741 14.7714 40.9144 16.7531 42.2355C18.1551 43.1791 19.5302 44.1498 20.8378 45.2147C20.9457 45.2822 21.0535 45.363 21.1209 45.5383Z" fill="#07903D"/>
<path d="M27.3355 40.2134C27.0254 40.4426 26.6884 40.6583 26.3784 40.901C25.4482 41.575 24.545 42.2895 23.6822 43.0444C23.1564 43.5028 22.6711 43.9881 22.1723 44.4734C21.9566 44.6756 21.9297 44.6756 21.7275 44.4869C20.5681 43.5163 19.3414 42.64 18.1011 41.7907C15.9712 40.3213 13.7738 38.9597 11.5225 37.6656C9.95869 36.7758 8.36795 35.9265 6.72329 35.212C6.46715 35.1042 6.33235 34.9424 6.33235 34.6593C6.31886 34.2279 6.37279 34.1471 6.81766 34.1605C7.62651 34.174 8.43536 34.2819 9.24421 34.3762C10.0531 34.4706 10.8619 34.5919 11.6573 34.7267C13.3019 34.9964 14.9062 35.3603 16.5104 35.7917C19.4088 36.5601 22.2263 37.5173 24.9359 38.8249C25.7043 39.1889 26.4323 39.5933 27.1603 40.0247C27.2277 40.0652 27.3085 40.0921 27.3355 40.2134Z" fill="#07903D"/>
<path d="M51.0485 40.3887C51.1968 44.2307 50.4554 47.8031 48.8107 51.2138C47.2469 54.4627 44.4834 57.6442 42.1377 59.2484C42.1377 58.9922 42.1377 58.7631 42.1377 58.5339C42.1512 56.0669 42.4882 53.6538 43.297 51.3216C44.2272 48.5985 45.6832 46.1854 47.584 44.042C48.6355 42.8557 49.7274 41.7233 50.8328 40.5909C50.8868 40.5235 50.9542 40.483 51.0485 40.3887Z" fill="white"/>
<path d="M13.8821 58.21C8.89418 53.5591 6.35978 47.9376 6.31934 41.2107C6.48111 41.1163 6.53503 41.2242 6.60243 41.2781C7.54609 42.0195 8.40887 42.8284 9.15031 43.772C10.3771 45.3223 11.5903 46.8861 12.561 48.6117C13.7203 50.6608 14.4348 52.8581 14.7853 55.1768C14.7988 55.2847 14.8123 55.3925 14.7718 55.5004C14.3944 56.3362 14.1517 57.2259 13.8821 58.21Z" fill="white"/>
<path d="M28.9668 35.7511C29.0612 34.6726 29.2903 33.6885 29.6813 32.7448C30.6923 30.3183 32.4449 28.5658 34.7096 27.2986C36.2869 26.4223 37.972 25.8831 39.7784 25.7078C40.3446 25.6539 40.9108 25.6539 41.477 25.7213C41.6118 25.7348 41.7466 25.7483 41.7736 25.937C41.9219 26.9076 41.9893 27.8917 41.7601 28.8624C41.5309 29.806 41.0322 30.561 40.2503 31.1271C39.4684 31.6933 38.5921 32.0034 37.6754 32.2461C36.3408 32.5966 34.9927 32.8931 33.6716 33.2976C32.4449 33.675 31.2855 34.1738 30.2475 34.9422C29.87 35.2388 29.4656 35.5084 28.9668 35.7511Z" fill="#F59C16"/>
<path d="M28.3738 35.7107C28.185 35.6702 28.0637 35.5624 27.9289 35.4815C27.6862 35.3332 27.4301 35.1714 27.2009 34.9962C26.0146 34.0929 24.6531 33.5672 23.2376 33.1628C22.0512 32.8258 20.8515 32.5561 19.6651 32.2461C18.9507 32.0573 18.2631 31.8147 17.6295 31.4507C16.3084 30.7093 15.6344 29.5769 15.513 28.094C15.4591 27.4334 15.4996 26.7594 15.6074 26.1123C15.6613 25.7753 15.6613 25.7618 16.0253 25.7213C16.942 25.6405 17.8587 25.6944 18.7484 25.8696C21.512 26.4358 23.9116 27.6626 25.8259 29.7656C27.2414 31.3159 28.0772 33.1358 28.3738 35.2119C28.3872 35.3197 28.4007 35.4276 28.4007 35.5489C28.4007 35.5758 28.3872 35.6298 28.3738 35.7107Z" fill="#F59C16"/>
<path d="M29.0747 29.1459C28.9938 28.4179 29.0882 27.6899 29.2634 26.9889C29.6004 25.6274 30.261 24.4411 31.1507 23.3896C32.5797 21.7045 34.2918 20.4507 36.3948 19.7497C36.961 19.561 37.5407 19.4397 38.1473 19.4666C38.6191 19.4801 38.6731 19.5206 38.7135 19.9924C38.7674 20.8821 38.8483 21.7853 38.6461 22.6751C38.2552 24.3871 37.2441 25.6409 35.6938 26.4227C33.7121 27.4203 31.6495 28.2831 29.5735 29.065C29.4252 29.1189 29.2769 29.2133 29.0747 29.1459Z" fill="#F59C16"/>
<path d="M28.2659 29.1862C27.9423 29.1457 27.6592 29.0109 27.3761 28.9031C25.5023 28.1616 23.6419 27.3797 21.822 26.49C20.1369 25.6542 19.045 24.333 18.6945 22.4457C18.6405 22.1222 18.6001 21.7852 18.6001 21.4616C18.6001 20.9628 18.6271 20.464 18.654 19.9653C18.681 19.5608 18.7619 19.4934 19.1528 19.4665C19.7595 19.426 20.3526 19.5339 20.9053 19.7226C23.952 20.8011 26.2572 22.7423 27.6592 25.6811C28.1176 26.6248 28.3198 27.6493 28.3063 28.7008C28.3333 28.8491 28.3602 29.0109 28.2659 29.1862Z" fill="#F59C16"/>
<path d="M25.974 18.6573C26.0414 16.6622 26.6211 14.8423 27.9557 13.3324C28.6702 12.5101 28.5219 12.5236 29.2499 13.3324C30.3283 14.5322 30.8945 15.9747 31.1372 17.5519C31.272 18.4282 31.2855 19.3179 31.0563 20.1807C30.881 20.8412 30.5979 21.4209 30.0992 21.8927C29.2229 22.7151 28.0366 22.7286 27.1468 21.9197C26.5267 21.3535 26.2167 20.6255 26.0684 19.8167C25.9875 19.4258 25.9605 19.0483 25.974 18.6573Z" fill="#F59C16"/>
<path d="M30.7192 33.2438C30.8136 32.9202 30.9349 32.6236 31.0967 32.3271C31.6629 31.2756 32.4313 30.3993 33.3076 29.6174C33.8872 29.1051 34.5343 28.6738 35.2084 28.2963C36.3273 27.6762 37.5136 27.2448 38.7673 26.9752C39.3065 26.8538 39.8593 26.8404 40.412 26.773C40.7085 26.7325 40.7625 26.7999 40.7625 27.083C40.7625 27.5144 40.7894 27.9323 40.722 28.3637C40.5468 29.4287 39.9401 30.1297 38.9965 30.588C38.1741 30.9925 37.2844 31.2082 36.3947 31.4104C34.8983 31.7474 33.4154 32.1518 31.9864 32.691C31.6494 32.8124 31.3394 33.0011 31.0158 33.1629C30.9349 33.2168 30.854 33.2707 30.7192 33.2438Z" fill="#FBC201"/>
<path d="M26.6883 33.2301C25.7447 32.8122 24.8145 32.4617 23.8574 32.1651C22.6036 31.7742 21.323 31.4911 20.0423 31.181C19.3952 31.0192 18.7751 30.7901 18.1954 30.4665C17.2922 29.9812 16.7664 29.2398 16.6586 28.2017C16.6181 27.8378 16.5642 27.4873 16.6047 27.1368C16.6451 26.8132 16.7529 26.7188 17.0765 26.7593C17.7775 26.8537 18.4785 26.8941 19.1525 27.0828C20.8376 27.5277 22.3745 28.2422 23.7495 29.3072C24.8684 30.1699 25.7447 31.2484 26.4052 32.5021C26.5131 32.7448 26.594 32.9874 26.6883 33.2301Z" fill="#FBC201"/>
<path d="M30.2744 27.5681C30.3957 27.0288 30.544 26.5705 30.7462 26.1391C31.1237 25.3033 31.636 24.5618 32.2426 23.8608C33.4155 22.5262 34.8444 21.5556 36.4891 20.9085C36.7722 20.8007 37.0688 20.7467 37.3653 20.6659C37.5271 20.6254 37.5945 20.6928 37.608 20.8411C37.7967 22.1622 37.4597 23.3351 36.5834 24.3326C36.0038 25.0067 35.2623 25.4516 34.44 25.7886C33.5907 26.1391 32.7684 26.53 31.9326 26.894C31.4203 27.1232 30.908 27.3658 30.2744 27.5681Z" fill="#FBC201"/>
<path d="M19.7461 21.3943C19.7461 21.246 19.7461 21.0842 19.7461 20.936C19.7596 20.6259 19.8 20.5855 20.0831 20.6529C20.8246 20.8281 21.539 21.0977 22.1996 21.4752C23.305 22.0953 24.2891 22.8637 25.1384 23.8074C26.0012 24.7645 26.6483 25.843 27.0123 27.0967C27.0258 27.1506 27.0392 27.2046 27.0527 27.2585C27.0662 27.4472 26.9853 27.5146 26.8101 27.4472C26.5404 27.3528 26.2708 27.245 26.0012 27.1237C24.7744 26.5844 23.5342 26.0856 22.3344 25.4925C20.9189 24.7915 20.0292 23.6456 19.7596 22.0549C19.7596 22.0144 19.7461 21.974 19.7461 21.9335C19.7461 21.7583 19.7461 21.583 19.7461 21.3943Z" fill="#FBC201"/>
<path d="M30.0455 18.6439C30.0995 19.3314 30.0321 19.965 29.7085 20.5582C29.5737 20.8278 29.3715 21.03 29.1423 21.2053C28.8188 21.4614 28.2795 21.4075 27.956 21.1378C27.4302 20.6795 27.2011 20.0863 27.1471 19.4258C27.0393 18.1586 27.2146 16.9183 27.7268 15.7455C27.9156 15.3276 28.1447 14.9367 28.3874 14.5592C28.5626 14.2896 28.6166 14.3031 28.7918 14.5457C29.2367 15.1793 29.5602 15.8803 29.7759 16.6352C29.9646 17.2958 30.1129 17.9698 30.0455 18.6439Z" fill="#FBC201"/>
<path d="M45.6563 27.3257C45.818 27.3392 45.9259 27.4605 45.9124 27.6358C45.9124 27.811 45.7911 27.9324 45.6293 27.9324C45.4541 27.9324 45.3193 27.7841 45.3462 27.5953C45.3732 27.4336 45.508 27.3122 45.6563 27.3257Z" fill="#F5F8F8"/>
<path d="M9.64882 27.4203V27.7843H10.1476V28H9.64882V28.3774H10.2015V28.6066H9.36572V27.2046H10.2015V27.4338H9.64882V27.4203Z" fill="#206B47"/>
<path d="M11.3339 28.4177C11.2935 28.4716 11.2395 28.5255 11.1721 28.566C11.1047 28.6064 11.0104 28.6199 10.916 28.6199C10.8216 28.6199 10.7273 28.6064 10.6464 28.566C10.5655 28.5255 10.5116 28.4851 10.4576 28.4177C10.4037 28.3503 10.3768 28.2829 10.3768 28.1885H10.6733C10.6733 28.2424 10.7003 28.2963 10.7407 28.3368C10.7812 28.3772 10.8351 28.3907 10.9025 28.3907C10.9564 28.3907 11.0104 28.3772 11.0373 28.3503C11.0643 28.3233 11.0778 28.2829 11.0778 28.2289C11.0778 28.1885 11.0643 28.1481 11.0373 28.1211C11.0104 28.0941 10.9834 28.0672 10.943 28.0537C10.9025 28.0402 10.8486 28.0132 10.7812 27.9998C10.6868 27.9728 10.6194 27.9458 10.5655 27.9189C10.5116 27.8919 10.4576 27.8515 10.4172 27.7976C10.3768 27.7436 10.3633 27.6762 10.3633 27.5819C10.3633 27.4605 10.4037 27.3662 10.4981 27.2988C10.579 27.2314 10.7003 27.1909 10.8486 27.1909C10.9969 27.1909 11.1182 27.2314 11.1991 27.2988C11.2935 27.3662 11.3339 27.4605 11.3474 27.5819H11.0508C11.0373 27.5279 11.0238 27.4875 10.9834 27.4605C10.943 27.4336 10.9025 27.4066 10.8351 27.4066C10.7812 27.4066 10.7407 27.4201 10.7138 27.4471C10.6868 27.474 10.6599 27.5145 10.6599 27.5684C10.6599 27.6088 10.6733 27.6493 10.7003 27.6762C10.7273 27.7032 10.7542 27.7302 10.7947 27.7436C10.8351 27.7571 10.889 27.7841 10.943 27.7976C11.0373 27.8245 11.1047 27.865 11.1587 27.8919C11.2126 27.9189 11.2665 27.9593 11.3069 28.0133C11.3474 28.0672 11.3609 28.1481 11.3609 28.2289C11.3878 28.2963 11.3609 28.3638 11.3339 28.4177Z" fill="#206B47"/>
<path d="M12.5474 27.2046V27.4338H12.1565V28.6201H11.8734V27.4338H11.4824V27.2046H12.5474Z" fill="#206B47"/>
<path d="M44.3081 27.4605V27.1909H44.8204V28.5929H44.5238V27.4471H44.3081V27.4605Z" fill="#206B47"/>
<path d="M45.5487 28.4041C45.6431 28.4041 45.7105 28.3637 45.7509 28.2828C45.7914 28.2019 45.8048 28.0671 45.8048 27.9053C45.7779 27.9727 45.7374 28.0266 45.6835 28.0536C45.6161 28.094 45.5487 28.1075 45.4678 28.1075C45.333 28.1075 45.2252 28.0671 45.1443 27.9862C45.0634 27.9053 45.0229 27.784 45.0229 27.6357C45.0229 27.5413 45.0364 27.4604 45.0769 27.393C45.1173 27.3256 45.1712 27.2582 45.2386 27.2178C45.306 27.1774 45.4004 27.1504 45.5083 27.1504C45.7105 27.1504 45.8588 27.2178 45.9262 27.3391C46.0071 27.4604 46.0475 27.6357 46.0475 27.8514C46.0475 28.1075 46.0071 28.2963 45.9262 28.4176C45.8453 28.5524 45.724 28.6198 45.5352 28.6198C45.4409 28.6198 45.36 28.6063 45.2791 28.5659C45.2117 28.5254 45.1578 28.4715 45.1173 28.4041C45.0769 28.3367 45.0634 28.2693 45.0499 28.1884H45.3195C45.3465 28.3367 45.4274 28.4041 45.5487 28.4041ZM45.7105 27.4604C45.67 27.4065 45.6026 27.393 45.5217 27.393C45.4543 27.393 45.3869 27.42 45.3465 27.4604C45.306 27.5009 45.2791 27.5683 45.2791 27.6357C45.2791 27.7166 45.306 27.7705 45.3465 27.8244C45.3869 27.8649 45.4543 27.8918 45.5217 27.8918C45.5891 27.8918 45.6431 27.8649 45.697 27.8244C45.7509 27.784 45.7779 27.7301 45.7779 27.6492C45.7779 27.5818 45.7509 27.5144 45.7105 27.4604Z" fill="#206B47"/>
<path d="M46.9908 27.2043C47.0582 27.2313 47.1121 27.2852 47.1525 27.3391C47.193 27.393 47.2065 27.4604 47.2065 27.5413C47.2065 27.6357 47.1795 27.7031 47.1391 27.757C47.0851 27.811 47.0312 27.8514 46.9368 27.8649V27.8784C47.1391 27.9323 47.2334 28.0536 47.2334 28.2289C47.2334 28.3502 47.193 28.4446 47.1121 28.5254C47.0312 28.6063 46.9099 28.6333 46.7751 28.6333C46.6133 28.6333 46.492 28.5928 46.3976 28.512C46.3032 28.4311 46.2493 28.3232 46.2358 28.1615H46.5055C46.5055 28.2289 46.5324 28.2963 46.5729 28.3367C46.6133 28.3771 46.6672 28.4041 46.7481 28.4041C46.8155 28.4041 46.856 28.3906 46.8964 28.3502C46.9368 28.3097 46.9503 28.2693 46.9503 28.2154C46.9503 28.148 46.9234 28.094 46.8694 28.0536C46.8155 28.0132 46.7346 27.9997 46.6403 27.9997H46.5863V27.7705H46.6403C46.829 27.7705 46.9234 27.7031 46.9234 27.5818C46.9234 27.5279 46.9099 27.4739 46.8694 27.447C46.8425 27.42 46.7886 27.393 46.7346 27.393C46.6807 27.393 46.6268 27.4065 46.5863 27.447C46.5459 27.4874 46.5324 27.5413 46.5189 27.6087H46.2493C46.2628 27.4604 46.3032 27.3526 46.3841 27.2717C46.465 27.1908 46.5863 27.1504 46.7346 27.1504C46.8425 27.1504 46.9234 27.1639 46.9908 27.2043Z" fill="#206B47"/>
<path d="M47.436 27.8917C47.436 27.4199 47.6113 27.1772 47.9753 27.1772C48.164 27.1772 48.2988 27.2446 48.3797 27.366C48.4606 27.4873 48.501 27.6626 48.501 27.8917C48.501 28.1074 48.4606 28.2827 48.3797 28.4175C48.2988 28.5523 48.164 28.6062 47.9753 28.6062C47.6113 28.6062 47.436 28.377 47.436 27.8917ZM48.2314 27.8917C48.2314 27.7434 48.2179 27.6356 48.1775 27.5547C48.137 27.4738 48.0696 27.4334 47.9753 27.4334C47.8674 27.4334 47.8 27.4738 47.7731 27.5547C47.7326 27.6356 47.7191 27.7434 47.7191 27.8917C47.7191 28.04 47.7326 28.1479 47.7731 28.2288C47.8135 28.3096 47.8809 28.3501 47.9753 28.3501C48.0831 28.3501 48.1505 28.3096 48.1775 28.2288C48.2179 28.1479 48.2314 28.04 48.2314 27.8917Z" fill="#206B47"/>
<path d="M63.0525 14.5881V11.5455H77.3877V14.5881H72.0439V29H68.3962V14.5881H63.0525ZM94.0314 20.2727C94.0314 22.1761 93.6706 23.7955 92.949 25.1307C92.2331 26.4659 91.2558 27.4858 90.0172 28.1903C88.7842 28.8892 87.3979 29.2386 85.8581 29.2386C84.307 29.2386 82.9149 28.8864 81.682 28.1818C80.449 27.4773 79.4746 26.4574 78.7587 25.1222C78.0428 23.7869 77.6848 22.1705 77.6848 20.2727C77.6848 18.3693 78.0428 16.75 78.7587 15.4148C79.4746 14.0795 80.449 13.0625 81.682 12.3636C82.9149 11.6591 84.307 11.3068 85.8581 11.3068C87.3979 11.3068 88.7842 11.6591 90.0172 12.3636C91.2558 13.0625 92.2331 14.0795 92.949 15.4148C93.6706 16.75 94.0314 18.3693 94.0314 20.2727ZM90.2899 20.2727C90.2899 19.0398 90.1053 18 89.7359 17.1534C89.3723 16.3068 88.8581 15.6648 88.1933 15.2273C87.5285 14.7898 86.7501 14.571 85.8581 14.571C84.966 14.571 84.1876 14.7898 83.5229 15.2273C82.8581 15.6648 82.341 16.3068 81.9717 17.1534C81.6081 18 81.4263 19.0398 81.4263 20.2727C81.4263 21.5057 81.6081 22.5455 81.9717 23.392C82.341 24.2386 82.8581 24.8807 83.5229 25.3182C84.1876 25.7557 84.966 25.9744 85.8581 25.9744C86.7501 25.9744 87.5285 25.7557 88.1933 25.3182C88.8581 24.8807 89.3723 24.2386 89.7359 23.392C90.1053 22.5455 90.2899 21.5057 90.2899 20.2727ZM105.274 16.5653C105.206 15.8778 104.913 15.3437 104.396 14.9631C103.879 14.5824 103.177 14.392 102.291 14.392C101.689 14.392 101.18 14.4773 100.765 14.6477C100.351 14.8125 100.032 15.0426 99.8107 15.3381C99.5948 15.6335 99.4869 15.9688 99.4869 16.3438C99.4755 16.6562 99.5409 16.929 99.6829 17.1619C99.8306 17.3949 100.032 17.5966 100.288 17.767C100.544 17.9318 100.839 18.0767 101.174 18.2017C101.51 18.321 101.868 18.4233 102.248 18.5085L103.816 18.8835C104.578 19.054 105.277 19.2812 105.913 19.5653C106.549 19.8494 107.101 20.1989 107.566 20.6136C108.032 21.0284 108.393 21.517 108.649 22.0795C108.91 22.642 109.044 23.2869 109.049 24.0142C109.044 25.0824 108.771 26.0085 108.231 26.7926C107.697 27.571 106.924 28.1761 105.913 28.608C104.907 29.0341 103.694 29.2472 102.274 29.2472C100.865 29.2472 99.6374 29.0312 98.592 28.5994C97.5522 28.1676 96.7397 27.5284 96.1545 26.6818C95.5749 25.8295 95.271 24.7756 95.2426 23.5199H98.8136C98.8534 24.1051 99.021 24.5937 99.3164 24.9858C99.6176 25.3722 100.018 25.6648 100.518 25.8636C101.024 26.0568 101.595 26.1534 102.231 26.1534C102.856 26.1534 103.399 26.0625 103.859 25.8807C104.325 25.6989 104.686 25.446 104.941 25.1222C105.197 24.7983 105.325 24.4261 105.325 24.0057C105.325 23.6136 105.208 23.2841 104.976 23.017C104.748 22.75 104.413 22.5227 103.97 22.3352C103.532 22.1477 102.995 21.9773 102.359 21.8239L100.458 21.3466C98.9869 20.9886 97.8249 20.429 96.9727 19.6676C96.1204 18.9062 95.6971 17.8807 95.7028 16.5909C95.6971 15.5341 95.9784 14.6108 96.5465 13.821C97.1204 13.0312 97.9073 12.4148 98.9073 11.9716C99.9073 11.5284 101.044 11.3068 102.316 11.3068C103.612 11.3068 104.743 11.5284 105.708 11.9716C106.68 12.4148 107.436 13.0312 107.976 13.821C108.515 14.6108 108.794 15.5256 108.811 16.5653H105.274ZM110.572 29V11.5455H114.262V18.7472H121.753V11.5455H125.435V29H121.753V21.7898H114.262V29H110.572ZM127.518 29V11.5455H131.208V19.2415H131.438L137.72 11.5455H142.143L135.666 19.3608L142.22 29H137.805L133.024 21.8239L131.208 24.0398V29H127.518ZM143.105 29V11.5455H154.866V14.5881H146.795V18.7472H154.261V21.7898H146.795V25.9574H154.9V29H143.105ZM171.439 11.5455V29H168.252L160.658 18.0142H160.53V29H156.84V11.5455H160.079L167.613 22.5227H167.766V11.5455H171.439ZM172.864 14.5881V11.5455H187.199V14.5881H181.855V29H178.207V14.5881H172.864ZM199.382 29H193.194V11.5455H199.433C201.189 11.5455 202.7 11.8949 203.967 12.5938C205.234 13.2869 206.209 14.2841 206.89 15.5852C207.578 16.8864 207.922 18.4432 207.922 20.2557C207.922 22.0739 207.578 23.6364 206.89 24.9432C206.209 26.25 205.229 27.2528 203.95 27.9517C202.677 28.6506 201.155 29 199.382 29ZM196.885 25.8381H199.229C200.319 25.8381 201.237 25.6449 201.981 25.2585C202.731 24.8665 203.294 24.2614 203.669 23.4432C204.05 22.6193 204.24 21.5568 204.24 20.2557C204.24 18.9659 204.05 17.9119 203.669 17.0938C203.294 16.2756 202.734 15.6733 201.99 15.2869C201.246 14.9006 200.328 14.7074 199.237 14.7074H196.885V25.8381ZM211.72 29H207.765L213.791 11.5455H218.546L224.563 29H220.609L216.237 15.5341H216.1L211.72 29ZM211.472 22.1392H220.813V25.0199H211.472V22.1392ZM226.678 11.5455L230.897 24.8068H231.059L235.286 11.5455H239.377L233.36 29H228.604L222.578 11.5455H226.678ZM240.518 29V11.5455H244.208V25.9574H251.691V29H240.518ZM256.629 29H252.674L258.7 11.5455H263.455L269.472 29H265.518L261.146 15.5341H261.009L256.629 29ZM256.381 22.1392H265.722V25.0199H256.381V22.1392ZM267.816 14.5881V11.5455H282.151V14.5881H276.807V29H273.159V14.5881H267.816ZM66.7258 55H62.7712L68.7968 37.5455H73.5525L79.5695 55H75.615L71.2428 41.5341H71.1064L66.7258 55ZM66.4786 48.1392H75.8195V51.0199H66.4786V48.1392ZM91.4639 43.1875C91.3446 42.7727 91.177 42.4062 90.9611 42.0881C90.7452 41.7642 90.481 41.4915 90.1685 41.2699C89.8616 41.0426 89.5094 40.8693 89.1116 40.75C88.7196 40.6307 88.2849 40.571 87.8077 40.571C86.9156 40.571 86.1315 40.7926 85.4554 41.2358C84.7849 41.679 84.2622 42.3239 83.8872 43.1705C83.5122 44.0114 83.3247 45.0398 83.3247 46.2557C83.3247 47.4716 83.5094 48.5057 83.8787 49.358C84.248 50.2102 84.7707 50.8608 85.4469 51.3097C86.123 51.7528 86.9213 51.9744 87.8418 51.9744C88.677 51.9744 89.3901 51.8267 89.981 51.5312C90.5776 51.2301 91.0321 50.8068 91.3446 50.2614C91.6628 49.7159 91.8219 49.071 91.8219 48.3267L92.5719 48.4375H88.0719V45.6591H95.3759V47.858C95.3759 49.392 95.052 50.7102 94.4043 51.8125C93.7565 52.9091 92.8645 53.7557 91.7281 54.3523C90.5918 54.9432 89.2906 55.2386 87.8247 55.2386C86.1883 55.2386 84.7508 54.8778 83.5122 54.1562C82.2736 53.429 81.3077 52.3977 80.6145 51.0625C79.927 49.7216 79.5832 48.1307 79.5832 46.2898C79.5832 44.875 79.7878 43.6136 80.1969 42.5057C80.6116 41.392 81.1912 40.4489 81.9355 39.6761C82.6798 38.9034 83.5463 38.3153 84.5349 37.9119C85.5236 37.5085 86.5946 37.3068 87.748 37.3068C88.7366 37.3068 89.6571 37.4517 90.5094 37.7415C91.3616 38.0256 92.1173 38.429 92.7764 38.9517C93.4412 39.4744 93.9838 40.0966 94.4043 40.8182C94.8247 41.5341 95.0946 42.3239 95.2139 43.1875H91.4639ZM97.1879 55V37.5455H104.074C105.392 37.5455 106.517 37.7812 107.449 38.2528C108.387 38.7187 109.1 39.3807 109.588 40.2386C110.083 41.0909 110.33 42.0937 110.33 43.2472C110.33 44.4062 110.08 45.4034 109.58 46.2386C109.08 47.0682 108.355 47.7045 107.407 48.1477C106.463 48.5909 105.321 48.8125 103.98 48.8125H99.3697V45.8466H103.384C104.088 45.8466 104.674 45.75 105.14 45.5568C105.605 45.3636 105.952 45.0739 106.179 44.6875C106.412 44.3011 106.529 43.821 106.529 43.2472C106.529 42.6676 106.412 42.179 106.179 41.7812C105.952 41.3835 105.603 41.0824 105.131 40.8778C104.665 40.6676 104.077 40.5625 103.367 40.5625H100.878V55H97.1879ZM106.614 47.0568L110.952 55H106.878L102.634 47.0568H106.614ZM114.986 55H111.032L117.057 37.5455H121.813L127.83 55H123.876L119.503 41.5341H119.367L114.986 55ZM114.739 48.1392H124.08V51.0199H114.739V48.1392ZM128.971 55V37.5455H135.857C137.176 37.5455 138.301 37.7812 139.232 38.2528C140.17 38.7187 140.883 39.3807 141.372 40.2386C141.866 41.0909 142.113 42.0937 142.113 43.2472C142.113 44.4062 141.863 45.4034 141.363 46.2386C140.863 47.0682 140.139 47.7045 139.19 48.1477C138.247 48.5909 137.105 48.8125 135.764 48.8125H131.153V45.8466H135.167C135.872 45.8466 136.457 45.75 136.923 45.5568C137.389 45.3636 137.735 45.0739 137.962 44.6875C138.195 44.3011 138.312 43.821 138.312 43.2472C138.312 42.6676 138.195 42.179 137.962 41.7812C137.735 41.3835 137.386 41.0824 136.914 40.8778C136.448 40.6676 135.86 40.5625 135.15 40.5625H132.661V55H128.971ZM138.397 47.0568L142.735 55H138.661L134.417 47.0568H138.397ZM159.137 37.5455H162.827V48.8807C162.827 50.1534 162.523 51.267 161.915 52.2216C161.313 53.1761 160.469 53.9205 159.384 54.4545C158.299 54.983 157.035 55.2472 155.591 55.2472C154.143 55.2472 152.876 54.983 151.79 54.4545C150.705 53.9205 149.861 53.1761 149.259 52.2216C148.657 51.267 148.356 50.1534 148.356 48.8807V37.5455H152.046V48.5653C152.046 49.2301 152.191 49.821 152.481 50.3381C152.776 50.8551 153.191 51.2614 153.725 51.5568C154.259 51.8523 154.881 52 155.591 52C156.307 52 156.93 51.8523 157.458 51.5568C157.992 51.2614 158.404 50.8551 158.694 50.3381C158.989 49.821 159.137 49.2301 159.137 48.5653V37.5455ZM179.503 37.5455V55H176.315L168.722 44.0142H168.594V55H164.903V37.5455H168.142L175.676 48.5227H175.83V37.5455H179.503ZM185.282 37.5455V55H181.592V37.5455H185.282ZM190.512 37.5455L194.731 50.8068H194.893L199.12 37.5455H203.211L197.194 55H192.438L186.412 37.5455H190.512ZM204.352 55V37.5455H216.113V40.5881H208.042V44.7472H215.508V47.7898H208.042V51.9574H216.147V55H204.352ZM218.087 55V37.5455H224.973C226.291 37.5455 227.416 37.7812 228.348 38.2528C229.286 38.7187 229.999 39.3807 230.487 40.2386C230.982 41.0909 231.229 42.0937 231.229 43.2472C231.229 44.4062 230.979 45.4034 230.479 46.2386C229.979 47.0682 229.255 47.7045 228.306 48.1477C227.362 48.5909 226.22 48.8125 224.88 48.8125H220.269V45.8466H224.283C224.987 45.8466 225.573 45.75 226.039 45.5568C226.505 45.3636 226.851 45.0739 227.078 44.6875C227.311 44.3011 227.428 43.821 227.428 43.2472C227.428 42.6676 227.311 42.179 227.078 41.7812C226.851 41.3835 226.502 41.0824 226.03 40.8778C225.564 40.6676 224.976 40.5625 224.266 40.5625H221.777V55H218.087ZM227.513 47.0568L231.851 55H227.777L223.533 47.0568H227.513ZM242.346 42.5653C242.277 41.8778 241.985 41.3437 241.468 40.9631C240.951 40.5824 240.249 40.392 239.363 40.392C238.76 40.392 238.252 40.4773 237.837 40.6477C237.422 40.8125 237.104 41.0426 236.883 41.3381C236.667 41.6335 236.559 41.9688 236.559 42.3438C236.547 42.6562 236.613 42.929 236.755 43.1619C236.902 43.3949 237.104 43.5966 237.36 43.767C237.616 43.9318 237.911 44.0767 238.246 44.2017C238.581 44.321 238.939 44.4233 239.32 44.5085L240.888 44.8835C241.65 45.054 242.349 45.2812 242.985 45.5653C243.621 45.8494 244.172 46.1989 244.638 46.6136C245.104 47.0284 245.465 47.517 245.721 48.0795C245.982 48.642 246.116 49.2869 246.121 50.0142C246.116 51.0824 245.843 52.0085 245.303 52.7926C244.769 53.571 243.996 54.1761 242.985 54.608C241.979 55.0341 240.766 55.2472 239.346 55.2472C237.937 55.2472 236.709 55.0312 235.664 54.5994C234.624 54.1676 233.812 53.5284 233.226 52.6818C232.647 51.8295 232.343 50.7756 232.314 49.5199H235.885C235.925 50.1051 236.093 50.5937 236.388 50.9858C236.689 51.3722 237.09 51.6648 237.59 51.8636C238.096 52.0568 238.667 52.1534 239.303 52.1534C239.928 52.1534 240.471 52.0625 240.931 51.8807C241.397 51.6989 241.758 51.446 242.013 51.1222C242.269 50.7983 242.397 50.4261 242.397 50.0057C242.397 49.6136 242.28 49.2841 242.047 49.017C241.82 48.75 241.485 48.5227 241.042 48.3352C240.604 48.1477 240.067 47.9773 239.431 47.8239L237.53 47.3466C236.059 46.9886 234.897 46.429 234.045 45.6676C233.192 44.9062 232.769 43.8807 232.775 42.5909C232.769 41.5341 233.05 40.6108 233.618 39.821C234.192 39.0312 234.979 38.4148 235.979 37.9716C236.979 37.5284 238.116 37.3068 239.388 37.3068C240.684 37.3068 241.814 37.5284 242.78 37.9716C243.752 38.4148 244.508 39.0312 245.047 39.821C245.587 40.6108 245.866 41.5256 245.883 42.5653H242.346ZM251.334 37.5455V55H247.643V37.5455H251.334ZM252.745 40.5881V37.5455H267.081V40.5881H261.737V55H258.089V40.5881H252.745ZM268.481 55V37.5455H280.243V40.5881H272.172V44.7472H279.638V47.7898H272.172V51.9574H280.277V55H268.481ZM281.552 40.5881V37.5455H295.887V40.5881H290.543V55H286.896V40.5881H281.552ZM300.978 37.5455V55H297.288V37.5455H300.978Z" fill="#142E38"/>
</svg>
