<svg width="304" height="65" viewBox="0 0 304 65" fill="none" xmlns="http://www.w3.org/2000/svg">
<path d="M6.00879 26.9752C6.00879 22.0547 6.00879 17.1476 6.00879 12.2271C6.00879 10.879 6.21104 9.55792 6.62902 8.27724C7.07396 6.92916 7.74812 5.68892 8.63801 4.58349C9.7706 3.15452 11.1729 2.03561 12.8043 1.22676C14.0583 0.606638 15.3661 0.215693 16.7549 0.0808849C17.2673 0.0269615 17.7796 0.0134806 18.292 0.0134806C25.7752 0.0134806 33.2448 0.0269617 40.728 0C43.5999 0 46.1617 0.876255 48.4269 2.62877C50.2067 4.00381 51.4876 5.7698 52.2696 7.8863C52.809 9.32875 53.0517 10.8116 53.0517 12.3485C53.0517 22.0007 53.0517 31.653 53.0517 41.3053C53.0517 44.015 52.6202 46.6437 51.7303 49.1916C50.8943 51.5777 49.7348 53.7751 48.1707 55.7568C47.7393 56.3095 47.2539 56.8353 46.7954 57.361C45.8381 58.426 44.7595 59.3562 43.6404 60.2324C42.8044 60.893 41.901 61.4592 40.9707 61.9849C39.0291 63.0634 36.9797 63.8723 34.8089 64.3711C33.8246 64.6002 32.8403 64.7755 31.8291 64.8564C30.9797 64.9238 30.1167 65.0316 29.2673 64.9912C28.1617 64.9372 27.0695 64.8833 25.9774 64.7081C24.683 64.5059 23.4291 64.2228 22.1886 63.8049C20.7594 63.333 19.3706 62.7264 18.0628 61.9849C17.0111 61.3918 16.0133 60.7312 15.0695 59.9763C13.9234 59.0731 12.8717 58.0755 11.9144 56.9835C10.7684 55.6894 9.78408 54.3009 8.94813 52.791C7.74812 50.5936 6.89868 48.2614 6.44025 45.7944C6.27845 44.9047 6.1571 44.0015 6.08969 43.0848C6.03576 42.3433 6.02227 41.5884 6.02227 40.847C6.00879 36.223 6.00879 31.5991 6.00879 26.9752Z" fill="#0B653F"/>
<path d="M29.5366 1.10547C33.2984 1.10547 37.0737 1.10547 40.8355 1.10547C45.8513 1.11895 50.2063 4.4622 51.5142 9.27486C51.7569 10.1916 51.8917 11.1217 51.8917 12.0654C51.8917 18.9406 51.8917 25.8293 51.8917 32.7046C51.8917 33.1899 51.9592 33.1495 51.4603 33.1629C49.2355 33.2438 47.0243 33.4865 44.8265 33.8909C41.7119 34.4571 38.6512 35.2929 35.6849 36.3849C33.5681 37.1667 31.5321 38.1374 29.6175 39.3237C29.3613 39.4854 29.1995 39.4585 28.9568 39.3102C27.1905 38.1508 25.2759 37.3015 23.3074 36.5466C19.6669 35.1311 15.8916 34.147 12.0354 33.5134C10.5388 33.2708 9.01518 33.109 7.49158 33.0146C7.1545 32.9877 7.16798 33.0281 7.16798 32.6507C7.16798 25.735 7.14102 18.8328 7.18147 11.9171C7.18147 6.78091 10.9837 2.29178 16.0534 1.32116C16.795 1.18635 17.5366 1.11895 18.2781 1.10547C22.0265 1.10547 25.7883 1.10547 29.5366 1.10547Z" fill="white"/>
<path d="M24.292 5.54102V6.30942H22.9439V10.3941H21.9733V6.30942H20.6387V5.54102H24.292Z" fill="#0C653F"/>
<path d="M28.8091 9.23496C28.6069 9.59894 28.3103 9.88204 27.9328 10.0977C27.5554 10.2999 27.097 10.4078 26.5713 10.4078H24.8457V5.55469H26.5713C27.097 5.55469 27.5554 5.64905 27.9328 5.85127C28.3103 6.05348 28.6069 6.33658 28.8091 6.70056C29.0113 7.06454 29.1057 7.49593 29.1057 7.98124C29.1057 8.45307 29.0113 8.87098 28.8091 9.23496ZM27.6902 9.12711C27.9733 8.8575 28.1215 8.46655 28.1215 7.96776C28.1215 7.46897 27.9733 7.07802 27.6902 6.80841C27.4071 6.53879 27.0026 6.3905 26.4769 6.3905H25.8028V9.53154H26.4769C27.0026 9.53154 27.4071 9.39673 27.6902 9.12711Z" fill="#0C653F"/>
<path d="M32.8005 9.42348H30.8457L30.4952 10.4076H29.4707L31.2637 5.6084H32.3691L34.1486 10.4076H33.124L32.8005 9.42348ZM32.5443 8.69551L31.8299 6.64642L31.1154 8.69551H32.5443Z" fill="#0C653F"/>
<path d="M35.6179 5.54102V8.39896C35.6179 8.77642 35.6988 9.05952 35.874 9.26173C36.0358 9.45046 36.2785 9.54483 36.602 9.54483C36.9121 9.54483 37.1547 9.45046 37.3165 9.26173C37.4782 9.073 37.5726 8.7899 37.5726 8.39896V5.54102H38.5298V8.39896C38.5298 8.84382 38.4489 9.23477 38.2736 9.54483C38.1118 9.85489 37.8692 10.0841 37.5726 10.2324C37.276 10.3806 36.939 10.4615 36.5616 10.4615C35.9819 10.4615 35.51 10.2863 35.1595 9.93577C34.809 9.58527 34.6338 9.073 34.6338 8.39896V5.54102H35.6179Z" fill="#0C653F"/>
<path d="M51.8921 34.8482C51.8786 35.4683 51.973 35.374 51.3797 35.5492C49.4651 36.1289 47.591 36.7895 45.8112 37.6927C43.0741 39.0677 40.5527 40.7663 38.2471 42.7615C35.564 45.0802 33.1909 47.682 31.2763 50.6747C29.6988 53.1417 28.6201 55.7975 28.1212 58.6824C27.9055 59.9765 27.7437 61.2842 27.7033 62.5918C27.6898 62.8614 27.6628 63.1445 27.6493 63.4141C27.6224 63.7107 27.6089 63.7242 27.3257 63.6972C26.5976 63.6029 25.8695 63.522 25.1549 63.3737C21.7976 62.6862 18.7369 61.2977 16.0133 59.2216C15.6628 58.9655 15.6762 58.9655 15.7841 58.5341C16.5392 55.5953 17.901 52.9126 19.5594 50.4051C23.456 44.5275 28.7819 40.3484 35.3347 37.7331C38.1392 36.6142 41.0381 35.7919 43.991 35.1852C45.5685 34.8617 47.146 34.6325 48.7505 34.4708C49.7078 34.3764 50.6516 34.3494 51.609 34.2685C51.7977 34.2551 51.9056 34.309 51.8921 34.5112C51.8921 34.6325 51.8921 34.7404 51.8921 34.8482Z" fill="#51AC33"/>
<path d="M51.8922 38.4877C51.7843 38.8382 51.5282 39.1618 51.1911 39.4853C49.7753 40.8469 48.4135 42.2758 47.1461 43.7722C45.1102 46.1853 43.627 48.8949 42.7506 51.9416C42.2787 53.5997 42.009 55.2849 41.9012 56.9969C41.8472 57.8732 41.8337 58.736 41.8472 59.6122C41.8607 59.9492 41.7528 60.1649 41.4562 60.3537C39.3259 61.6883 37.0472 62.6589 34.6068 63.2386C32.8944 63.643 31.1416 63.8317 29.3753 63.8317C29.3079 63.8317 29.2404 63.8317 29.173 63.8317C28.782 63.8182 28.782 63.8182 28.782 63.4408C28.7685 62.7398 28.8359 62.0253 28.9034 61.3243C29.0247 59.9627 29.2404 58.6146 29.5775 57.28C30.2112 54.8535 31.2899 52.6426 32.7056 50.58C34.4584 48.0322 36.5214 45.7674 38.854 43.7453C41.1865 41.7231 43.7214 39.9976 46.4989 38.636C48.1439 37.8272 49.8697 37.2205 51.6091 36.6813C51.8922 36.5869 51.9057 36.6139 51.9192 36.9105C51.8922 36.9239 51.9461 38.2855 51.8922 38.4877Z" fill="#51AC33"/>
<path d="M21.9312 45.5383C19.7471 47.9109 17.927 50.5532 16.4709 53.5459C16.336 53.0471 16.2147 52.6427 16.1068 52.2383C15.4462 49.8522 14.2867 47.7087 12.8576 45.7001C12.1026 44.6351 11.2936 43.624 10.4712 42.6129C10.0263 42.0737 9.51394 41.5749 8.97464 41.1166C8.44883 40.6582 7.92301 40.2134 7.35675 39.8359C7.24889 39.755 7.18148 39.6741 7.168 39.5393C7.12755 39.2427 7.10059 36.7757 7.10059 36.6814C7.11407 36.3578 7.27586 36.3578 7.72078 36.56C9.01509 37.1262 10.2555 37.8138 11.4824 38.5013C13.5587 39.6741 15.581 40.9144 17.5629 42.2355C18.9651 43.1791 20.3403 44.1498 21.6481 45.2147C21.756 45.2822 21.8638 45.363 21.9312 45.5383Z" fill="#07903D"/>
<path d="M28.1482 40.2134C27.8381 40.4426 27.5011 40.6583 27.1909 40.901C26.2606 41.575 25.3572 42.2895 24.4943 43.0444C23.9685 43.5028 23.4831 43.9881 22.9842 44.4734C22.7685 44.6756 22.7415 44.6756 22.5392 44.4869C21.3797 43.5163 20.1527 42.64 18.9123 41.7907C16.7819 40.3213 14.5842 38.9597 12.3325 37.6656C10.7684 36.7758 9.17739 35.9265 7.53244 35.212C7.27626 35.1042 7.14143 34.9424 7.14143 34.6593C7.12794 34.2279 7.18188 34.1471 7.62682 34.1605C8.43581 34.174 9.24481 34.2819 10.0538 34.3762C10.8628 34.4706 11.6718 34.5919 12.4673 34.7267C14.1122 34.9964 15.7167 35.3603 17.3212 35.7917C20.2201 36.5601 23.0381 37.5173 25.7482 38.8249C26.5168 39.1889 27.2449 39.5933 27.973 40.0247C28.0404 40.0652 28.1213 40.0921 28.1482 40.2134Z" fill="#07903D"/>
<path d="M51.865 40.3887C52.0133 44.2307 51.2718 47.8031 49.6269 51.2138C48.063 54.4627 45.2991 57.6442 42.9531 59.2484C42.9531 58.9922 42.9531 58.7631 42.9531 58.5339C42.9666 56.0669 43.3037 53.6538 44.1126 51.3216C45.0429 48.5985 46.499 46.1854 48.4 44.042C49.4516 42.8557 50.5437 41.7233 51.6493 40.5909C51.7032 40.5235 51.7706 40.483 51.865 40.3887Z" fill="white"/>
<path d="M14.6907 58.2105C9.70277 53.5596 7.16837 47.9381 7.12793 41.2112C7.2897 41.1168 7.34362 41.2246 7.41103 41.2786C8.35469 42.02 9.21746 42.8289 9.95891 43.7725C11.1857 45.3228 12.3989 46.8866 13.3696 48.6122C14.5289 50.6612 15.2434 52.8586 15.5939 55.1773C15.6074 55.2852 15.6209 55.393 15.5804 55.5009C15.203 56.3367 14.9603 57.2264 14.6907 58.2105Z" fill="white"/>
<path d="M29.7793 35.7511C29.8737 34.6726 30.1029 33.6885 30.4939 32.7448C31.505 30.3183 33.2578 28.5658 35.5228 27.2986C37.1002 26.4223 38.7855 25.8831 40.5922 25.7078C41.1585 25.6539 41.7247 25.6539 42.291 25.7213C42.4258 25.7348 42.5606 25.7483 42.5876 25.937C42.7359 26.9076 42.8033 27.8917 42.5741 28.8624C42.3449 29.806 41.8461 30.561 41.0641 31.1271C40.2821 31.6933 39.4057 32.0034 38.4889 32.2461C37.1542 32.5966 35.8059 32.8931 34.4847 33.2976C33.2578 33.675 32.0983 34.1738 31.0601 34.9422C30.6826 35.2388 30.2781 35.5084 29.7793 35.7511Z" fill="#F59C16"/>
<path d="M29.1858 35.7107C28.9971 35.6702 28.8757 35.5624 28.7409 35.4815C28.4982 35.3332 28.242 35.1714 28.0128 34.9962C26.8264 34.0929 25.4647 33.5672 24.049 33.1628C22.8626 32.8258 21.6626 32.5561 20.4762 32.2461C19.7616 32.0573 19.074 31.8147 18.4403 31.4507C17.1191 30.7093 16.4449 29.5769 16.3236 28.094C16.2697 27.4334 16.3101 26.7594 16.418 26.1123C16.4719 25.7753 16.4719 25.7618 16.8359 25.7213C17.7527 25.6405 18.6695 25.6944 19.5594 25.8696C22.3233 26.4358 24.7231 27.6626 26.6376 29.7656C28.0533 31.3159 28.8892 33.1358 29.1858 35.2119C29.1993 35.3197 29.2128 35.4276 29.2128 35.5489C29.2128 35.5758 29.1993 35.6298 29.1858 35.7107Z" fill="#F59C16"/>
<path d="M29.8877 29.1459C29.8068 28.4179 29.9012 27.6899 30.0764 26.9889C30.4135 25.6274 31.0741 24.4411 31.964 23.3896C33.3931 21.7045 35.1054 20.4507 37.2086 19.7497C37.7749 19.561 38.3546 19.4397 38.9613 19.4666C39.4332 19.4801 39.4872 19.5206 39.5276 19.9924C39.5815 20.8821 39.6624 21.7853 39.4602 22.6751C39.0692 24.3871 38.058 25.6409 36.5075 26.4227C34.5256 27.4203 32.4628 28.2831 30.3865 29.065C30.2382 29.1189 30.0899 29.2133 29.8877 29.1459Z" fill="#F59C16"/>
<path d="M29.078 29.1862C28.7544 29.1457 28.4713 29.0109 28.1882 28.9031C26.3141 28.1616 24.4536 27.3797 22.6334 26.49C20.9481 25.6542 19.8561 24.333 19.5055 22.4457C19.4516 22.1222 19.4111 21.7852 19.4111 21.4616C19.4111 20.9628 19.4381 20.464 19.4651 19.9653C19.492 19.5608 19.5729 19.4934 19.9639 19.4665C20.5706 19.426 21.1638 19.5339 21.7166 19.7226C24.7637 20.8011 27.0691 22.7423 28.4713 25.6811C28.9297 26.6248 29.132 27.6493 29.1185 28.7008C29.1454 28.8491 29.1724 29.0109 29.078 29.1862Z" fill="#F59C16"/>
<path d="M26.7865 18.6573C26.8539 16.6622 27.4336 14.8423 28.7682 13.3324C29.4827 12.5101 29.3344 12.5236 30.0624 13.3324C31.1408 14.5322 31.707 15.9747 31.9497 17.5519C32.0845 18.4282 32.098 19.3179 31.8688 20.1807C31.6935 20.8412 31.4104 21.4209 30.9117 21.8927C30.0354 22.7151 28.8491 22.7286 27.9593 21.9197C27.3392 21.3535 27.0292 20.6255 26.8809 19.8167C26.8 19.4258 26.773 19.0483 26.7865 18.6573Z" fill="#F59C16"/>
<path d="M31.5332 33.2433C31.6276 32.9197 31.7489 32.6232 31.9107 32.3266C32.477 31.2751 33.2455 30.3988 34.1218 29.6169C34.7016 29.1047 35.3487 28.6733 36.0228 28.2958C37.1419 27.6757 38.3283 27.2443 39.5822 26.9747C40.1215 26.8534 40.6743 26.8399 41.2271 26.7725C41.5237 26.732 41.5776 26.7994 41.5776 27.0825C41.5776 27.5139 41.6046 27.9318 41.5372 28.3632C41.3619 29.4282 40.7552 30.1292 39.8114 30.5875C38.989 30.992 38.0991 31.2077 37.2093 31.4099C35.7128 31.7469 34.2297 32.1513 32.8005 32.6906C32.4635 32.8119 32.1534 33.0006 31.8298 33.1624C31.7489 33.2163 31.668 33.2702 31.5332 33.2433Z" fill="#FBC201"/>
<path d="M27.5005 33.2306C26.5568 32.8127 25.6265 32.4622 24.6692 32.1656C23.4154 31.7747 22.1345 31.4916 20.8537 31.1815C20.2066 31.0197 19.5864 30.7906 19.0066 30.467C18.1033 29.9817 17.5775 29.2403 17.4696 28.2022C17.4292 27.8382 17.3752 27.4877 17.4157 27.1372C17.4561 26.8137 17.564 26.7193 17.8876 26.7598C18.5887 26.8541 19.2897 26.8946 19.9639 27.0833C21.6492 27.5282 23.1862 28.2427 24.5614 29.3077C25.6804 30.1704 26.5568 31.2489 27.2174 32.5026C27.3253 32.7453 27.4062 32.9879 27.5005 33.2306Z" fill="#FBC201"/>
<path d="M31.0869 27.5681C31.2082 27.0288 31.3565 26.5705 31.5587 26.1391C31.9362 25.3033 32.4485 24.5618 33.0551 23.8608C34.228 22.5262 35.6569 21.5556 37.3016 20.9085C37.5847 20.8007 37.8813 20.7467 38.1778 20.6659C38.3396 20.6254 38.407 20.6928 38.4205 20.8411C38.6092 22.1622 38.2722 23.3351 37.3959 24.3326C36.8163 25.0067 36.0748 25.4516 35.2525 25.7886C34.4032 26.1391 33.5809 26.53 32.7451 26.894C32.2328 27.1232 31.7205 27.3658 31.0869 27.5681Z" fill="#FBC201"/>
<path d="M20.5576 21.3943C20.5576 21.246 20.5576 21.0842 20.5576 20.936C20.5711 20.6259 20.6115 20.5855 20.8946 20.6529C21.6361 20.8281 22.3506 21.0977 23.0111 21.4752C24.1166 22.0953 25.1007 22.8637 25.95 23.8074C26.8127 24.7645 27.4598 25.843 27.8238 27.0967C27.8373 27.1506 27.8508 27.2046 27.8642 27.2585C27.8777 27.4472 27.7968 27.5146 27.6216 27.4472C27.352 27.3528 27.0823 27.245 26.8127 27.1237C25.586 26.5844 24.3457 26.0856 23.1459 25.4925C21.7305 24.7915 20.8407 23.6456 20.5711 22.0549C20.5711 22.0144 20.5576 21.974 20.5576 21.9335C20.5576 21.7583 20.5576 21.583 20.5576 21.3943Z" fill="#FBC201"/>
<path d="M30.8575 18.6439C30.9115 19.3314 30.8441 19.965 30.5205 20.5582C30.3857 20.8278 30.1835 21.03 29.9543 21.2053C29.6308 21.4614 29.0916 21.4075 28.768 21.1378C28.2423 20.6795 28.0131 20.0863 27.9592 19.4258C27.8513 18.1586 28.0266 16.9183 28.5388 15.7455C28.7276 15.3276 28.9567 14.9367 29.1994 14.5592C29.3747 14.2896 29.4286 14.3031 29.6038 14.5457C30.0487 15.1793 30.3722 15.8803 30.5879 16.6352C30.7767 17.2958 30.9249 17.9698 30.8575 18.6439Z" fill="#FBC201"/>
<path d="M46.4717 27.3252C46.6335 27.3387 46.7413 27.4601 46.7278 27.6353C46.7278 27.8106 46.6065 27.9319 46.4447 27.9319C46.2695 27.9319 46.1347 27.7836 46.1616 27.5949C46.1886 27.4331 46.3234 27.3118 46.4717 27.3252Z" fill="#F5F8F8"/>
<path d="M10.4579 27.4198V27.7838H10.9567V27.9995H10.4579V28.3769H11.0106V28.6061H10.1748V27.2041H11.0106V27.4333H10.4579V27.4198Z" fill="#206B47"/>
<path d="M12.1435 28.4172C12.103 28.4711 12.0491 28.525 11.9817 28.5655C11.9143 28.6059 11.8199 28.6194 11.7256 28.6194C11.6312 28.6194 11.5368 28.6059 11.4559 28.5655C11.3751 28.525 11.3211 28.4846 11.2672 28.4172C11.2133 28.3498 11.1863 28.2824 11.1863 28.188H11.4829C11.4829 28.2419 11.5099 28.2959 11.5503 28.3363C11.5908 28.3767 11.6447 28.3902 11.7121 28.3902C11.766 28.3902 11.8199 28.3767 11.8469 28.3498C11.8739 28.3228 11.8873 28.2824 11.8873 28.2285C11.8873 28.188 11.8739 28.1476 11.8469 28.1206C11.8199 28.0936 11.793 28.0667 11.7525 28.0532C11.7121 28.0397 11.6582 28.0128 11.5908 27.9993C11.4964 27.9723 11.429 27.9454 11.3751 27.9184C11.3211 27.8914 11.2672 27.851 11.2268 27.7971C11.1863 27.7431 11.1729 27.6757 11.1729 27.5814C11.1729 27.46 11.2133 27.3657 11.3077 27.2983C11.3885 27.2309 11.5099 27.1904 11.6582 27.1904C11.8065 27.1904 11.9278 27.2309 12.0087 27.2983C12.103 27.3657 12.1435 27.46 12.157 27.5814H11.8604C11.8469 27.5275 11.8334 27.487 11.793 27.46C11.7525 27.4331 11.7121 27.4061 11.6447 27.4061C11.5908 27.4061 11.5503 27.4196 11.5234 27.4466C11.4964 27.4735 11.4694 27.514 11.4694 27.5679C11.4694 27.6083 11.4829 27.6488 11.5099 27.6757C11.5368 27.7027 11.5638 27.7297 11.6042 27.7431C11.6447 27.7566 11.6986 27.7836 11.7525 27.7971C11.8469 27.824 11.9143 27.8645 11.9682 27.8914C12.0221 27.9184 12.0761 27.9588 12.1165 28.0128C12.157 28.0667 12.1704 28.1476 12.1704 28.2285C12.1974 28.2959 12.1704 28.3633 12.1435 28.4172Z" fill="#206B47"/>
<path d="M13.357 27.2041V27.4333H12.966V28.6196H12.6829V27.4333H12.292V27.2041H13.357Z" fill="#206B47"/>
<path d="M45.123 27.46V27.1904H45.6353V28.5924H45.3387V27.4466H45.123V27.46Z" fill="#206B47"/>
<path d="M46.3636 28.4041C46.458 28.4041 46.5254 28.3637 46.5659 28.2828C46.6063 28.2019 46.6198 28.0671 46.6198 27.9053C46.5928 27.9727 46.5524 28.0266 46.4985 28.0536C46.431 28.094 46.3636 28.1075 46.2828 28.1075C46.1479 28.1075 46.0401 28.0671 45.9592 27.9862C45.8783 27.9053 45.8379 27.784 45.8379 27.6357C45.8379 27.5413 45.8514 27.4604 45.8918 27.393C45.9323 27.3256 45.9862 27.2582 46.0536 27.2178C46.121 27.1774 46.2154 27.1504 46.3232 27.1504C46.5254 27.1504 46.6737 27.2178 46.7411 27.3391C46.822 27.4604 46.8624 27.6357 46.8624 27.8514C46.8624 28.1075 46.822 28.2963 46.7411 28.4176C46.6602 28.5524 46.5389 28.6198 46.3502 28.6198C46.2558 28.6198 46.1749 28.6063 46.094 28.5659C46.0266 28.5254 45.9727 28.4715 45.9323 28.4041C45.8918 28.3367 45.8783 28.2693 45.8649 28.1884H46.1345C46.1614 28.3367 46.2423 28.4041 46.3636 28.4041ZM46.5254 27.4604C46.485 27.4065 46.4176 27.393 46.3367 27.393C46.2693 27.393 46.2019 27.42 46.1614 27.4604C46.121 27.5009 46.094 27.5683 46.094 27.6357C46.094 27.7166 46.121 27.7705 46.1614 27.8244C46.2019 27.8649 46.2693 27.8918 46.3367 27.8918C46.4041 27.8918 46.458 27.8649 46.5119 27.8244C46.5659 27.784 46.5928 27.7301 46.5928 27.6492C46.5928 27.5818 46.5659 27.5144 46.5254 27.4604Z" fill="#206B47"/>
<path d="M47.8057 27.2043C47.8731 27.2313 47.927 27.2852 47.9675 27.3391C48.0079 27.393 48.0214 27.4604 48.0214 27.5413C48.0214 27.6357 47.9944 27.7031 47.954 27.757C47.9001 27.811 47.8462 27.8514 47.7518 27.8649V27.8784C47.954 27.9323 48.0484 28.0536 48.0484 28.2289C48.0484 28.3502 48.0079 28.4446 47.927 28.5254C47.8462 28.6063 47.7248 28.6333 47.59 28.6333C47.4282 28.6333 47.3069 28.5928 47.2126 28.512C47.1182 28.4311 47.0643 28.3232 47.0508 28.1615H47.3204C47.3204 28.2289 47.3474 28.2963 47.3878 28.3367C47.4282 28.3771 47.4822 28.4041 47.5631 28.4041C47.6305 28.4041 47.6709 28.3906 47.7113 28.3502C47.7518 28.3097 47.7653 28.2693 47.7653 28.2154C47.7653 28.148 47.7383 28.094 47.6844 28.0536C47.6305 28.0132 47.5496 27.9997 47.4552 27.9997H47.4013V27.7705H47.4552C47.6439 27.7705 47.7383 27.7031 47.7383 27.5818C47.7383 27.5279 47.7248 27.4739 47.6844 27.447C47.6574 27.42 47.6035 27.393 47.5496 27.393C47.4957 27.393 47.4417 27.4065 47.4013 27.447C47.3608 27.4874 47.3474 27.5413 47.3339 27.6087H47.0643C47.0777 27.4604 47.1182 27.3526 47.1991 27.2717C47.28 27.1908 47.4013 27.1504 47.5496 27.1504C47.6574 27.1504 47.7383 27.1639 47.8057 27.2043Z" fill="#206B47"/>
<path d="M48.251 27.8922C48.251 27.4204 48.4262 27.1777 48.7902 27.1777C48.9789 27.1777 49.1138 27.2451 49.1946 27.3665C49.2755 27.4878 49.316 27.663 49.316 27.8922C49.316 28.1079 49.2755 28.2832 49.1946 28.418C49.1138 28.5528 48.9789 28.6067 48.7902 28.6067C48.4262 28.6067 48.251 28.3775 48.251 27.8922ZM49.0463 27.8922C49.0463 27.7439 49.0329 27.6361 48.9924 27.5552C48.952 27.4743 48.8846 27.4339 48.7902 27.4339C48.6824 27.4339 48.615 27.4743 48.588 27.5552C48.5476 27.6361 48.5341 27.7439 48.5341 27.8922C48.5341 28.0405 48.5476 28.1484 48.588 28.2292C48.6284 28.3101 48.6958 28.3506 48.7902 28.3506C48.8981 28.3506 48.9655 28.3101 48.9924 28.2292C49.0329 28.1484 49.0463 28.0405 49.0463 27.8922Z" fill="#206B47"/>
<path d="M63.8708 14.5881V11.5455H78.2061V14.5881H72.8623V29H69.2146V14.5881H63.8708ZM94.8497 20.2727C94.8497 22.1761 94.489 23.7955 93.7674 25.1307C93.0515 26.4659 92.0742 27.4858 90.8355 28.1903C89.6026 28.8892 88.2162 29.2386 86.6765 29.2386C85.1253 29.2386 83.7333 28.8864 82.5003 28.1818C81.2674 27.4773 80.2929 26.4574 79.577 25.1222C78.8611 23.7869 78.5032 22.1705 78.5032 20.2727C78.5032 18.3693 78.8611 16.75 79.577 15.4148C80.2929 14.0795 81.2674 13.0625 82.5003 12.3636C83.7333 11.6591 85.1253 11.3068 86.6765 11.3068C88.2162 11.3068 89.6026 11.6591 90.8355 12.3636C92.0742 13.0625 93.0515 14.0795 93.7674 15.4148C94.489 16.75 94.8497 18.3693 94.8497 20.2727ZM91.1083 20.2727C91.1083 19.0398 90.9236 18 90.5543 17.1534C90.1907 16.3068 89.6765 15.6648 89.0117 15.2273C88.3469 14.7898 87.5685 14.571 86.6765 14.571C85.7844 14.571 85.006 14.7898 84.3412 15.2273C83.6765 15.6648 83.1594 16.3068 82.7901 17.1534C82.4265 18 82.2446 19.0398 82.2446 20.2727C82.2446 21.5057 82.4265 22.5455 82.7901 23.392C83.1594 24.2386 83.6765 24.8807 84.3412 25.3182C85.006 25.7557 85.7844 25.9744 86.6765 25.9744C87.5685 25.9744 88.3469 25.7557 89.0117 25.3182C89.6765 24.8807 90.1907 24.2386 90.5543 23.392C90.9236 22.5455 91.1083 21.5057 91.1083 20.2727ZM106.092 16.5653C106.024 15.8778 105.731 15.3437 105.214 14.9631C104.697 14.5824 103.996 14.392 103.109 14.392C102.507 14.392 101.998 14.4773 101.584 14.6477C101.169 14.8125 100.851 15.0426 100.629 15.3381C100.413 15.6335 100.305 15.9688 100.305 16.3438C100.294 16.6562 100.359 16.929 100.501 17.1619C100.649 17.3949 100.851 17.5966 101.106 17.767C101.362 17.9318 101.658 18.0767 101.993 18.2017C102.328 18.321 102.686 18.4233 103.067 18.5085L104.635 18.8835C105.396 19.054 106.095 19.2812 106.731 19.5653C107.368 19.8494 107.919 20.1989 108.385 20.6136C108.851 21.0284 109.211 21.517 109.467 22.0795C109.729 22.642 109.862 23.2869 109.868 24.0142C109.862 25.0824 109.589 26.0085 109.05 26.7926C108.515 27.571 107.743 28.1761 106.731 28.608C105.726 29.0341 104.513 29.2472 103.092 29.2472C101.683 29.2472 100.456 29.0312 99.4103 28.5994C98.3706 28.1676 97.5581 27.5284 96.9728 26.6818C96.3933 25.8295 96.0893 24.7756 96.0609 23.5199H99.6319C99.6717 24.1051 99.8393 24.5937 100.135 24.9858C100.436 25.3722 100.836 25.6648 101.336 25.8636C101.842 26.0568 102.413 26.1534 103.05 26.1534C103.675 26.1534 104.217 26.0625 104.677 25.8807C105.143 25.6989 105.504 25.446 105.76 25.1222C106.015 24.7983 106.143 24.4261 106.143 24.0057C106.143 23.6136 106.027 23.2841 105.794 23.017C105.567 22.75 105.231 22.5227 104.788 22.3352C104.351 22.1477 103.814 21.9773 103.177 21.8239L101.277 21.3466C99.8052 20.9886 98.6433 20.429 97.791 19.6676C96.9388 18.9062 96.5155 17.8807 96.5211 16.5909C96.5155 15.5341 96.7967 14.6108 97.3649 13.821C97.9388 13.0312 98.7257 12.4148 99.7257 11.9716C100.726 11.5284 101.862 11.3068 103.135 11.3068C104.43 11.3068 105.561 11.5284 106.527 11.9716C107.498 12.4148 108.254 13.0312 108.794 13.821C109.334 14.6108 109.612 15.5256 109.629 16.5653H106.092ZM111.39 29V11.5455H115.08V18.7472H122.572V11.5455H126.254V29H122.572V21.7898H115.08V29H111.39ZM128.336 29V11.5455H132.027V19.2415H132.257L138.538 11.5455H142.961L136.484 19.3608L143.038 29H138.623L133.842 21.8239L132.027 24.0398V29H128.336ZM143.923 29V11.5455H155.684V14.5881H147.613V18.7472H155.079V21.7898H147.613V25.9574H155.719V29H143.923ZM172.258 11.5455V29H169.07L161.477 18.0142H161.349V29H157.658V11.5455H160.897L168.431 22.5227H168.585V11.5455H172.258ZM173.682 14.5881V11.5455H188.017V14.5881H182.674V29H179.026V14.5881H173.682ZM200.2 29H194.013V11.5455H200.251C202.007 11.5455 203.518 11.8949 204.786 12.5938C206.053 13.2869 207.027 14.2841 207.709 15.5852C208.396 16.8864 208.74 18.4432 208.74 20.2557C208.74 22.0739 208.396 23.6364 207.709 24.9432C207.027 26.25 206.047 27.2528 204.768 27.9517C203.496 28.6506 201.973 29 200.2 29ZM197.703 25.8381H200.047C201.138 25.8381 202.055 25.6449 202.8 25.2585C203.55 24.8665 204.112 24.2614 204.487 23.4432C204.868 22.6193 205.058 21.5568 205.058 20.2557C205.058 18.9659 204.868 17.9119 204.487 17.0938C204.112 16.2756 203.553 15.6733 202.808 15.2869C202.064 14.9006 201.146 14.7074 200.055 14.7074H197.703V25.8381ZM212.538 29H208.583L214.609 11.5455H219.365L225.382 29H221.427L217.055 15.5341H216.919L212.538 29ZM212.291 22.1392H221.632V25.0199H212.291V22.1392ZM227.496 11.5455L231.715 24.8068H231.877L236.104 11.5455H240.195L234.178 29H229.422L223.397 11.5455H227.496ZM241.336 29V11.5455H245.026V25.9574H252.509V29H241.336ZM257.447 29H253.492L259.518 11.5455H264.274L270.291 29H266.336L261.964 15.5341H261.828L257.447 29ZM257.2 22.1392H266.541V25.0199H257.2V22.1392ZM268.634 14.5881V11.5455H282.969V14.5881H277.625V29H273.978V14.5881H268.634ZM67.5441 55H63.5896L69.6151 37.5455H74.3708L80.3879 55H76.4333L72.0612 41.5341H71.9248L67.5441 55ZM67.297 48.1392H76.6379V51.0199H67.297V48.1392ZM92.2823 43.1875C92.163 42.7727 91.9953 42.4062 91.7794 42.0881C91.5635 41.7642 91.2993 41.4915 90.9868 41.2699C90.68 41.0426 90.3277 40.8693 89.93 40.75C89.538 40.6307 89.1033 40.571 88.626 40.571C87.734 40.571 86.9499 40.7926 86.2738 41.2358C85.6033 41.679 85.0806 42.3239 84.7056 43.1705C84.3306 44.0114 84.1431 45.0398 84.1431 46.2557C84.1431 47.4716 84.3277 48.5057 84.6971 49.358C85.0664 50.2102 85.5891 50.8608 86.2652 51.3097C86.9414 51.7528 87.7397 51.9744 88.6601 51.9744C89.4953 51.9744 90.2084 51.8267 90.7993 51.5312C91.3959 51.2301 91.8505 50.8068 92.163 50.2614C92.4811 49.7159 92.6402 49.071 92.6402 48.3267L93.3902 48.4375H88.8902V45.6591H96.1942V47.858C96.1942 49.392 95.8703 50.7102 95.2226 51.8125C94.5749 52.9091 93.6828 53.7557 92.5465 54.3523C91.4101 54.9432 90.109 55.2386 88.6431 55.2386C87.0067 55.2386 85.5692 54.8778 84.3306 54.1562C83.0919 53.429 82.126 52.3977 81.4328 51.0625C80.7453 49.7216 80.4016 48.1307 80.4016 46.2898C80.4016 44.875 80.6061 43.6136 81.0152 42.5057C81.43 41.392 82.0095 40.4489 82.7539 39.6761C83.4982 38.9034 84.3647 38.3153 85.3533 37.9119C86.3419 37.5085 87.413 37.3068 88.5664 37.3068C89.555 37.3068 90.4755 37.4517 91.3277 37.7415C92.18 38.0256 92.9357 38.429 93.5948 38.9517C94.2596 39.4744 94.8022 40.0966 95.2226 40.8182C95.6431 41.5341 95.913 42.3239 96.0323 43.1875H92.2823ZM98.0062 55V37.5455H104.893C106.211 37.5455 107.336 37.7812 108.268 38.2528C109.205 38.7187 109.918 39.3807 110.407 40.2386C110.901 41.0909 111.148 42.0937 111.148 43.2472C111.148 44.4062 110.898 45.4034 110.398 46.2386C109.898 47.0682 109.174 47.7045 108.225 48.1477C107.282 48.5909 106.14 48.8125 104.799 48.8125H100.188V45.8466H104.202C104.907 45.8466 105.492 45.75 105.958 45.5568C106.424 45.3636 106.77 45.0739 106.998 44.6875C107.231 44.3011 107.347 43.821 107.347 43.2472C107.347 42.6676 107.231 42.179 106.998 41.7812C106.77 41.3835 106.421 41.0824 105.949 40.8778C105.484 40.6676 104.895 40.5625 104.185 40.5625H101.697V55H98.0062ZM107.432 47.0568L111.77 55H107.697L103.452 47.0568H107.432ZM115.805 55H111.85L117.876 37.5455H122.631L128.648 55H124.694L120.322 41.5341H120.185L115.805 55ZM115.558 48.1392H124.898V51.0199H115.558V48.1392ZM129.789 55V37.5455H136.676C137.994 37.5455 139.119 37.7812 140.051 38.2528C140.988 38.7187 141.701 39.3807 142.19 40.2386C142.684 41.0909 142.931 42.0937 142.931 43.2472C142.931 44.4062 142.681 45.4034 142.181 46.2386C141.681 47.0682 140.957 47.7045 140.008 48.1477C139.065 48.5909 137.923 48.8125 136.582 48.8125H131.971V45.8466H135.985C136.69 45.8466 137.275 45.75 137.741 45.5568C138.207 45.3636 138.554 45.0739 138.781 44.6875C139.014 44.3011 139.13 43.821 139.13 43.2472C139.13 42.6676 139.014 42.179 138.781 41.7812C138.554 41.3835 138.204 41.0824 137.733 40.8778C137.267 40.6676 136.679 40.5625 135.968 40.5625H133.48V55H129.789ZM139.215 47.0568L143.554 55H139.48L135.235 47.0568H139.215ZM159.955 37.5455H163.646V48.8807C163.646 50.1534 163.342 51.267 162.734 52.2216C162.131 53.1761 161.288 53.9205 160.202 54.4545C159.117 54.983 157.853 55.2472 156.41 55.2472C154.961 55.2472 153.694 54.983 152.609 54.4545C151.523 53.9205 150.68 53.1761 150.077 52.2216C149.475 51.267 149.174 50.1534 149.174 48.8807V37.5455H152.864V48.5653C152.864 49.2301 153.009 49.821 153.299 50.3381C153.594 50.8551 154.009 51.2614 154.543 51.5568C155.077 51.8523 155.7 52 156.41 52C157.126 52 157.748 51.8523 158.276 51.5568C158.81 51.2614 159.222 50.8551 159.512 50.3381C159.808 49.821 159.955 49.2301 159.955 48.5653V37.5455ZM180.321 37.5455V55H177.134L169.54 44.0142H169.412V55H165.722V37.5455H168.96L176.495 48.5227H176.648V37.5455H180.321ZM186.101 37.5455V55H182.41V37.5455H186.101ZM191.33 37.5455L195.549 50.8068H195.711L199.938 37.5455H204.029L198.012 55H193.256L187.231 37.5455H191.33ZM205.17 55V37.5455H216.931V40.5881H208.86V44.7472H216.326V47.7898H208.86V51.9574H216.965V55H205.17ZM218.905 55V37.5455H225.792C227.11 37.5455 228.235 37.7812 229.167 38.2528C230.104 38.7187 230.817 39.3807 231.306 40.2386C231.8 41.0909 232.047 42.0937 232.047 43.2472C232.047 44.4062 231.797 45.4034 231.297 46.2386C230.797 47.0682 230.073 47.7045 229.124 48.1477C228.181 48.5909 227.039 48.8125 225.698 48.8125H221.087V45.8466H225.101C225.806 45.8466 226.391 45.75 226.857 45.5568C227.323 45.3636 227.669 45.0739 227.897 44.6875C228.13 44.3011 228.246 43.821 228.246 43.2472C228.246 42.6676 228.13 42.179 227.897 41.7812C227.669 41.3835 227.32 41.0824 226.848 40.8778C226.383 40.6676 225.794 40.5625 225.084 40.5625H222.596V55H218.905ZM228.331 47.0568L232.669 55H228.596L224.351 47.0568H228.331ZM243.164 42.5653C243.096 41.8778 242.803 41.3437 242.286 40.9631C241.769 40.5824 241.067 40.392 240.181 40.392C239.579 40.392 239.07 40.4773 238.656 40.6477C238.241 40.8125 237.923 41.0426 237.701 41.3381C237.485 41.6335 237.377 41.9688 237.377 42.3438C237.366 42.6562 237.431 42.929 237.573 43.1619C237.721 43.3949 237.923 43.5966 238.178 43.767C238.434 43.9318 238.729 44.0767 239.065 44.2017C239.4 44.321 239.758 44.4233 240.138 44.5085L241.707 44.8835C242.468 45.054 243.167 45.2812 243.803 45.5653C244.44 45.8494 244.991 46.1989 245.457 46.6136C245.923 47.0284 246.283 47.517 246.539 48.0795C246.8 48.642 246.934 49.2869 246.94 50.0142C246.934 51.0824 246.661 52.0085 246.121 52.7926C245.587 53.571 244.815 54.1761 243.803 54.608C242.798 55.0341 241.584 55.2472 240.164 55.2472C238.755 55.2472 237.528 55.0312 236.482 54.5994C235.442 54.1676 234.63 53.5284 234.045 52.6818C233.465 51.8295 233.161 50.7756 233.133 49.5199H236.704C236.744 50.1051 236.911 50.5937 237.207 50.9858C237.508 51.3722 237.908 51.6648 238.408 51.8636C238.914 52.0568 239.485 52.1534 240.121 52.1534C240.746 52.1534 241.289 52.0625 241.749 51.8807C242.215 51.6989 242.576 51.446 242.832 51.1222C243.087 50.7983 243.215 50.4261 243.215 50.0057C243.215 49.6136 243.099 49.2841 242.866 49.017C242.638 48.75 242.303 48.5227 241.86 48.3352C241.423 48.1477 240.886 47.9773 240.249 47.8239L238.349 47.3466C236.877 46.9886 235.715 46.429 234.863 45.6676C234.011 44.9062 233.587 43.8807 233.593 42.5909C233.587 41.5341 233.869 40.6108 234.437 39.821C235.011 39.0312 235.798 38.4148 236.798 37.9716C237.798 37.5284 238.934 37.3068 240.207 37.3068C241.502 37.3068 242.633 37.5284 243.599 37.9716C244.57 38.4148 245.326 39.0312 245.866 39.821C246.406 40.6108 246.684 41.5256 246.701 42.5653H243.164ZM252.152 37.5455V55H248.462V37.5455H252.152ZM253.564 40.5881V37.5455H267.899V40.5881H262.555V55H258.907V40.5881H253.564ZM269.3 55V37.5455H281.061V40.5881H272.99V44.7472H280.456V47.7898H272.99V51.9574H281.095V55H269.3ZM282.37 40.5881V37.5455H296.705V40.5881H291.362V55H287.714V40.5881H282.37ZM301.797 37.5455V55H298.106V37.5455H301.797Z" fill="#142E38"/>
</svg>
