<svg width="72" height="72" viewBox="0 0 72 72" fill="none" xmlns="http://www.w3.org/2000/svg">
<path fill-rule="evenodd" clip-rule="evenodd" d="M1.33594 5.18498C1.10391 5.32898 0.775828 5.59771 0.607078 5.78207C0.438187 5.96643 0.232453 6.29535 0.150047 6.51304C0.0544219 6.76518 0 8.6421 0 11.681C0 16.2657 0.0111094 16.4642 0.28125 16.7344C0.449156 16.9023 0.749953 17.0156 1.02783 17.0156C1.28377 17.0156 1.61592 16.9259 1.76611 16.8162C2.02444 16.6274 2.04286 16.3623 2.10938 11.8592L2.17969 7.10155H36H69.8203V33.0469V58.9922L62.9648 59.0287L56.1094 59.0652V58.0092V56.9531H61.5938C66.8382 56.9531 67.0901 56.9412 67.3515 56.6797C67.502 56.5293 67.6635 56.1971 67.7108 55.9415C67.7579 55.6858 67.7773 52.9993 67.7537 49.9716C67.7135 44.7891 67.6952 44.4493 67.443 44.1709C67.2609 43.9698 67.0053 43.875 66.6447 43.875C66.239 43.875 66.0455 43.9622 65.8228 44.2455C65.54 44.605 65.5312 44.7692 65.5312 49.7299V54.8437H60.8203H56.1094V52.5388V50.2339L57.1295 50.1823C57.9012 50.1433 58.2566 50.0546 58.5887 49.8182C58.8302 49.6462 59.1306 49.2891 59.2561 49.0245C59.4179 48.6835 59.4844 48.1468 59.4844 47.1814V45.8194L60.3236 44.9454C60.7853 44.4646 61.2599 43.8394 61.3783 43.5558C61.4969 43.2723 61.5938 42.878 61.5938 42.6797C61.5938 42.4814 61.5005 42.0959 61.3865 41.8231C61.2726 41.5503 60.798 40.93 60.3318 40.4446L59.4844 39.562L59.4782 38.449C59.4748 37.8368 59.3859 37.0945 59.2806 36.7993C59.1754 36.5041 58.9725 36.1313 58.8298 35.9709C58.687 35.8103 58.3172 35.5628 58.0078 35.4208C57.6075 35.2368 57.1074 35.1616 56.2729 35.1593L55.1007 35.1562L54.2339 34.3302C53.7573 33.8759 53.1647 33.4012 52.9172 33.2755C52.6695 33.1498 52.2394 33.0469 51.9609 33.0469C51.6825 33.0469 51.2523 33.1498 51.0047 33.2755C50.7572 33.4012 50.1646 33.8759 49.688 34.3302L48.8212 35.1562L47.7193 35.1571C47.113 35.1575 46.3929 35.2201 46.1188 35.2963C45.8446 35.3724 45.4213 35.641 45.1782 35.8931C44.935 36.1453 44.6688 36.5297 44.5867 36.7474C44.5047 36.9651 44.4375 37.6826 44.4375 38.3417V39.5399L43.6115 40.4068C43.1571 40.8833 42.6825 41.4759 42.5568 41.7234C42.4311 41.9711 42.3281 42.4045 42.3281 42.6866C42.3281 42.9688 42.4284 43.4108 42.5507 43.6688C42.6732 43.927 43.1478 44.516 43.6054 44.9779L44.4375 45.8177V47.0666C44.4375 48.0819 44.4967 48.4326 44.7539 48.9428C44.9851 49.4013 45.2393 49.6555 45.6978 49.8867C46.1125 50.0958 46.5774 50.2031 47.0689 50.2031H47.8125V52.5234V54.8437H27.1406H6.46875V33.1172V11.3906H36H65.5312V25.3921C65.5312 35.6699 65.5743 39.4751 65.693 39.7007C65.7818 39.8696 65.9243 40.0543 66.0094 40.1112C66.0945 40.168 66.3916 40.2154 66.6696 40.2166C67.007 40.218 67.2643 40.1203 67.443 39.9227C67.7029 39.6356 67.7109 39.1819 67.7109 24.7392V9.85162L67.3906 9.53127L67.0703 9.21093H36H4.92975L4.60941 9.53127L4.28906 9.85148L4.24856 32.6641C4.22634 45.2109 4.24575 55.6858 4.29159 55.9415C4.33744 56.1971 4.49803 56.5293 4.6485 56.6797C4.91681 56.9481 5.3145 56.9531 26.3672 56.9531H47.8125V58.0082V59.0633L24.9961 59.0278L2.17969 58.9922L2.10938 39.8909C2.04047 21.1875 2.03344 20.7856 1.76611 20.5902C1.61592 20.4805 1.28377 20.3906 1.02783 20.3906C0.74925 20.3906 0.449016 20.5041 0.279844 20.6733C-0.000984371 20.9541 -0.00267188 21.0854 0.03375 40.3366L0.0703125 59.7172L0.475875 60.2489C0.698906 60.5413 1.14187 60.8989 1.46025 61.0435C2.01783 61.2967 2.87648 61.3064 24.9171 61.3094L47.7951 61.3125L47.8389 63.9267C47.8818 66.4796 47.8905 66.5474 48.2148 66.8095C48.3974 66.9573 48.7138 67.0756 48.918 67.0725C49.122 67.0693 49.8817 66.7908 50.606 66.4536C51.8991 65.8516 51.9324 65.8443 52.4341 66.0535C52.7152 66.1708 53.3074 66.4492 53.7498 66.6724C54.1924 66.8956 54.7186 67.0781 54.9193 67.0781C55.1199 67.0781 55.3999 67.0161 55.5414 66.9404C55.6829 66.8648 55.8685 66.6022 55.954 66.357C56.0429 66.1018 56.1094 64.928 56.1094 63.6119V61.3125L63.0352 61.3094C69.4953 61.3066 69.9999 61.2886 70.5397 61.0435C70.8581 60.8989 71.3011 60.5413 71.5241 60.2489L71.9297 59.7172L71.9699 33.4797C71.992 19.0491 71.973 7.03518 71.9277 6.78219C71.8826 6.52907 71.6494 6.09876 71.4097 5.8258C71.17 5.55271 70.7965 5.23771 70.5798 5.12563C70.239 4.94929 65.5739 4.92201 35.9719 4.92243C2.8402 4.92285 1.74445 4.93115 1.33594 5.18498ZM13.0268 18.2915C12.7596 18.5016 12.6562 18.713 12.6562 19.0493C12.6562 19.3058 12.7772 19.6651 12.9251 19.8477L13.1939 20.1797H31.8516H50.5093L50.778 19.8477C50.9259 19.6651 51.0469 19.3058 51.0469 19.0493C51.0469 18.713 50.9435 18.5016 50.6763 18.2915L50.3058 18H31.8516H13.3973L13.0268 18.2915ZM12.9375 24.75C12.769 24.9185 12.6562 25.2187 12.6562 25.499C12.6562 25.8059 12.768 26.0716 12.9817 26.2724L13.3072 26.5781H36.0197H58.7322L59.038 26.2527C59.2199 26.0591 59.3438 25.7456 59.3438 25.4793C59.3438 25.2187 59.226 24.9135 59.0625 24.75C58.7835 24.471 58.5938 24.4687 36 24.4687C13.4062 24.4687 13.2165 24.471 12.9375 24.75ZM13.263 30.9373C13.0942 31.006 12.8884 31.1882 12.806 31.3422C12.7236 31.4962 12.6562 31.7874 12.6562 31.9894C12.6562 32.1923 12.8116 32.5118 13.0036 32.7039L13.3509 33.0511L26.4457 33.0138L39.5405 32.9766L39.8094 32.6445C39.9572 32.462 40.0781 32.1367 40.0781 31.9219C40.0781 31.707 39.9572 31.3817 39.8094 31.1992L39.5405 30.8672L26.5555 30.8398C19.2393 30.8244 13.4362 30.8669 13.263 30.9373ZM52.8642 36.0233C53.1813 36.3843 53.7405 36.8257 54.107 37.0043C54.6473 37.2677 54.9865 37.3261 55.8984 37.3124C56.5172 37.3033 57.1009 37.3587 57.1956 37.4355C57.3142 37.5318 57.3415 37.8253 57.2837 38.3794C57.2252 38.9382 57.2728 39.435 57.4394 40.0082C57.635 40.681 57.8325 40.9829 58.5114 41.6474C58.9693 42.0952 59.3438 42.5652 59.3438 42.6916C59.3438 42.8181 58.9693 43.2823 58.5117 43.7231C57.8281 44.3818 57.6368 44.6721 57.4397 45.3503C57.2728 45.9243 57.2252 46.4209 57.2837 46.98C57.3415 47.5338 57.3141 47.8281 57.1956 47.9254C57.1009 48.0032 56.4539 48.057 55.7578 48.0451C54.6601 48.0262 54.4234 48.0662 53.9734 48.346C53.6881 48.5235 53.1252 49.049 52.7224 49.5138L51.9902 50.3591L50.9752 49.3107C50.0638 48.3692 49.8829 48.2467 49.2027 48.1106C48.7862 48.0271 48.034 47.9734 47.5312 47.9911L46.6172 48.0234L46.5878 46.7913C46.5674 45.9318 46.4764 45.3735 46.287 44.9453C46.1377 44.6076 45.6604 43.9948 45.2265 43.5836C44.7926 43.1723 44.4375 42.7794 44.4375 42.7105C44.4375 42.6414 44.7767 42.2584 45.1912 41.859C45.606 41.4596 46.0846 40.8583 46.2552 40.5228C46.5031 40.0349 46.5643 39.6769 46.5608 38.7351C46.558 37.9609 46.6151 37.5196 46.7274 37.4467C46.8215 37.3859 47.4047 37.3324 48.0234 37.3281C48.916 37.3219 49.278 37.2528 49.7753 36.9939C50.12 36.8145 50.7337 36.3226 51.139 35.9007C51.6701 35.3481 51.9332 35.1665 52.0816 35.2506C52.1949 35.3147 52.5471 35.6625 52.8642 36.0233ZM15.784 37.6175C15.5287 37.7279 15.2643 37.9777 15.1864 38.1825C15.1097 38.3844 15.0469 38.896 15.0469 39.3194C15.0469 39.7427 14.9801 40.7038 14.8985 41.4547C14.8171 42.2058 14.5939 43.6016 14.4028 44.5566C14.2117 45.5116 13.8354 46.9731 13.5668 47.8043C13.2981 48.6357 13.0781 49.4522 13.0781 49.6188C13.0781 49.7855 13.2047 50.0484 13.3594 50.2031C13.5278 50.3716 13.8281 50.4844 14.1083 50.4844C14.4207 50.4844 14.6817 50.3719 14.8943 50.1456C15.0699 49.9586 15.4252 49.137 15.6867 48.3126C15.9476 47.4907 16.2014 46.603 16.2508 46.34L16.3405 45.8616L16.8538 46.8664C17.1557 47.4571 17.5777 48.0375 17.8779 48.2749C18.1717 48.5072 18.6351 48.7116 18.9689 48.7564C19.342 48.8064 19.7671 48.751 20.1596 48.6011C20.4954 48.4729 20.9145 48.2144 21.0908 48.0267L21.4114 47.6854L21.8557 48.0243C22.1001 48.2106 22.6747 48.4608 23.1327 48.58C23.7881 48.7507 24.8133 48.7969 27.9501 48.7969H31.9347L32.2798 48.4516C32.5105 48.221 32.625 47.9485 32.625 47.6297C32.625 47.3238 32.519 47.0569 32.3293 46.8851C32.0558 46.6371 31.7077 46.612 27.676 46.5469L23.3184 46.4766L23.0517 46.1468C22.905 45.9655 22.7187 45.5711 22.6377 45.2703C22.5567 44.9696 22.3702 44.6591 22.2232 44.5805C22.0763 44.5019 21.7988 44.4375 21.6067 44.4375C21.4145 44.4375 21.1542 44.4771 21.0281 44.5255C20.9019 44.5739 20.6134 44.9807 20.3868 45.4295C20.1603 45.8782 19.8329 46.3448 19.6594 46.4664C19.4857 46.5881 19.2957 46.6875 19.2372 46.6875C19.1786 46.6875 19.01 46.4503 18.8625 46.1601C18.7149 45.8702 18.4591 45.1948 18.2942 44.6595C18.1292 44.1242 17.8102 42.3907 17.5852 40.8073C17.3422 39.0967 17.1008 37.8571 16.9905 37.7527C16.8882 37.6561 16.6781 37.5417 16.5234 37.4984C16.3687 37.455 16.036 37.5086 15.784 37.6175ZM50.9766 38.655C50.7445 38.7162 50.3016 38.8977 49.9922 39.0583C49.6828 39.2189 49.2308 39.5616 48.9878 39.8196C48.7448 40.0778 48.4055 40.5692 48.234 40.9117C48.0624 41.2542 47.8896 41.8915 47.8499 42.328C47.8024 42.8526 47.8588 43.3997 48.0163 43.9416C48.2072 44.5982 48.4163 44.9232 49.0669 45.5737C49.7174 46.2243 50.0424 46.4334 50.699 46.6244C51.2404 46.7817 51.788 46.8382 52.3112 46.7908C52.7527 46.7508 53.4165 46.5604 53.8106 46.3607C54.1994 46.1637 54.7266 45.7643 54.9821 45.4732C55.2378 45.1821 55.5784 44.656 55.7391 44.304C55.9464 43.8504 56.0315 43.3775 56.0315 42.6797C56.0315 41.9819 55.9464 41.509 55.7391 41.0553C55.5784 40.7033 55.2435 40.1839 54.9951 39.9008C54.7466 39.6179 54.2031 39.2199 53.7874 39.0164C53.3167 38.7862 52.7234 38.6271 52.215 38.5951C51.7659 38.5667 51.2086 38.5937 50.9766 38.655ZM53.3135 41.3271C53.8172 41.831 53.8594 41.9338 53.8594 42.6583C53.8594 43.3347 53.7993 43.5116 53.426 43.937C53.1837 44.2129 52.767 44.4929 52.4811 44.5718C52.1436 44.665 51.7954 44.6661 51.4568 44.5749C51.1747 44.4989 50.7803 44.2732 50.5803 44.0733C50.3805 43.8733 50.1428 43.4856 50.0525 43.2118C49.929 42.8377 49.9278 42.5817 50.0473 42.1826C50.1349 41.8902 50.4295 41.4554 50.7019 41.2162C51.1291 40.8411 51.3053 40.7812 51.9823 40.7812C52.7068 40.7812 52.8096 40.8234 53.3135 41.3271ZM51.7603 52.4223C52.3654 52.4804 52.558 52.4299 53.1606 52.0554L53.8594 51.621V57.9433C53.8594 61.4206 53.8341 64.2656 53.803 64.2656C53.772 64.2656 53.4081 64.108 52.9944 63.9155C52.5807 63.7228 52.1156 63.5653 51.9609 63.5653C51.8062 63.5653 51.3412 63.7228 50.9275 63.9155C50.5138 64.108 50.1498 64.2656 50.1189 64.2656C50.0878 64.2656 50.0625 61.4147 50.0625 57.9303V51.595L50.5606 51.975C50.8946 52.2298 51.2899 52.3772 51.7603 52.4223Z" fill="#3B3B3A"/>
<path fill-rule="evenodd" clip-rule="evenodd" d="M12.9375 24.75C12.769 24.9185 12.6562 25.2187 12.6562 25.499C12.6562 25.806 12.768 26.0716 12.9817 26.2724L13.3072 26.5781H36.0197H58.7322L59.038 26.2527C59.2199 26.0591 59.3438 25.7456 59.3438 25.4793C59.3438 25.2187 59.226 24.9135 59.0625 24.75C58.7835 24.471 58.5938 24.4688 36 24.4688C13.4062 24.4688 13.2165 24.471 12.9375 24.75ZM15.784 37.6175C15.5287 37.7279 15.2643 37.9777 15.1864 38.1825C15.1097 38.3844 15.0469 38.896 15.0469 39.3195C15.0469 39.7427 14.9801 40.7038 14.8985 41.4547C14.8171 42.2058 14.5939 43.6016 14.4028 44.5566C14.2117 45.5116 13.8354 46.9731 13.5668 47.8043C13.2981 48.6357 13.0781 49.4522 13.0781 49.6188C13.0781 49.7855 13.2047 50.0484 13.3594 50.2031C13.5278 50.3716 13.8281 50.4844 14.1083 50.4844C14.4207 50.4844 14.6817 50.3719 14.8943 50.1456C15.0699 49.9586 15.4252 49.137 15.6867 48.3126C15.9476 47.4907 16.2014 46.603 16.2508 46.34L16.3405 45.8616L16.8538 46.8664C17.1557 47.4571 17.5777 48.0375 17.8779 48.2749C18.1717 48.5072 18.6351 48.7117 18.9689 48.7564C19.342 48.8064 19.7671 48.751 20.1596 48.6011C20.4954 48.4729 20.9145 48.2144 21.0908 48.0267L21.4114 47.6854L21.8557 48.0243C22.1001 48.2106 22.6747 48.4608 23.1327 48.58C23.7881 48.7508 24.8133 48.7969 27.9501 48.7969H31.9347L32.2798 48.4516C32.5105 48.221 32.625 47.9485 32.625 47.6297C32.625 47.3238 32.519 47.0569 32.3293 46.8851C32.0558 46.6372 31.7077 46.612 27.676 46.5469L23.3184 46.4766L23.0517 46.1468C22.905 45.9655 22.7187 45.5711 22.6377 45.2703C22.5567 44.9696 22.3702 44.6591 22.2232 44.5805C22.0763 44.5019 21.7988 44.4375 21.6067 44.4375C21.4145 44.4375 21.1542 44.4772 21.0281 44.5255C20.9019 44.5739 20.6134 44.9807 20.3868 45.4295C20.1603 45.8782 19.8329 46.3448 19.6594 46.4664C19.4857 46.5881 19.2957 46.6875 19.2372 46.6875C19.1786 46.6875 19.01 46.4503 18.8625 46.1602C18.7149 45.8702 18.4591 45.1948 18.2942 44.6595C18.1292 44.1242 17.8102 42.3907 17.5852 40.8073C17.3422 39.0967 17.1008 37.8571 16.9905 37.7527C16.8882 37.6561 16.6781 37.5417 16.5234 37.4984C16.3687 37.455 16.036 37.5086 15.784 37.6175Z" fill="#169622"/>
<path fill-rule="evenodd" clip-rule="evenodd" d="M56.1094 52.5388V50.2339L57.1295 50.1823C57.9012 50.1434 58.2566 50.0546 58.5887 49.8182C58.8302 49.6463 59.1306 49.2891 59.2561 49.0245C59.4179 48.6835 59.4844 48.1468 59.4844 47.1814V45.8194L60.3236 44.9454C60.7853 44.4646 61.2599 43.8394 61.3783 43.5558C61.4969 43.2723 61.5938 42.878 61.5938 42.6797C61.5938 42.4814 61.5005 42.096 61.3865 41.8231C61.2726 41.5503 60.798 40.93 60.3318 40.4446L59.4844 39.562L59.4782 38.449C59.4748 37.8368 59.3859 37.0945 59.2806 36.7993C59.1754 36.5041 58.9725 36.1313 58.8298 35.9709C58.687 35.8103 58.3172 35.5628 58.0078 35.4208C57.6075 35.2368 57.1074 35.1616 56.2729 35.1593L55.1007 35.1562L54.2339 34.3302C53.7573 33.8759 53.1647 33.4013 52.9172 33.2755C52.6695 33.1498 52.2394 33.0469 51.9609 33.0469C51.6825 33.0469 51.2523 33.1498 51.0047 33.2755C50.7572 33.4013 50.1646 33.8759 49.688 34.3302L48.8212 35.1562L47.7193 35.1571C47.113 35.1575 46.3929 35.2201 46.1188 35.2963C45.8446 35.3724 45.4213 35.641 45.1782 35.8931C44.935 36.1453 44.6688 36.5297 44.5867 36.7474C44.5047 36.9651 44.4375 37.6826 44.4375 38.3417V39.54L43.6115 40.4068C43.1571 40.8833 42.6825 41.4759 42.5568 41.7234C42.4311 41.9711 42.3281 42.4045 42.3281 42.6866C42.3281 42.9688 42.4284 43.4108 42.5507 43.6688C42.6732 43.927 43.1478 44.516 43.6054 44.9779L44.4375 45.8177V47.0666C44.4375 48.0819 44.4967 48.4327 44.7539 48.9428C44.9851 49.4013 45.2393 49.6555 45.6978 49.8867C46.1125 50.0958 46.5774 50.2031 47.0689 50.2031H47.8125V52.5234L47.7951 61.3125L47.8389 63.9267C47.8818 66.4796 47.8905 66.5474 48.2148 66.8095C48.3974 66.9573 48.7138 67.0756 48.918 67.0725C49.122 67.0693 49.8817 66.7908 50.606 66.4536C51.8991 65.8516 51.9324 65.8443 52.4341 66.0535C52.7152 66.1708 53.3074 66.4492 53.7498 66.6724C54.1924 66.8956 54.7186 67.0781 54.9193 67.0781C55.1199 67.0781 55.3999 67.0161 55.5414 66.9405C55.6829 66.8648 55.8685 66.6023 55.954 66.357C56.0429 66.1018 56.1094 64.928 56.1094 63.6119V61.3125V52.5388ZM54.107 37.0043C53.7405 36.8258 53.1813 36.3843 52.8642 36.0233C52.5471 35.6625 52.1949 35.3147 52.0816 35.2506C51.9332 35.1665 51.6701 35.3481 51.139 35.9007C50.7337 36.3226 50.12 36.8145 49.7753 36.9939C49.278 37.2528 48.916 37.3219 48.0234 37.3281C47.4047 37.3324 46.8215 37.3859 46.7274 37.4468C46.6151 37.5196 46.558 37.9609 46.5608 38.7352C46.5643 39.6769 46.5031 40.035 46.2552 40.5228C46.0846 40.8583 45.606 41.4596 45.1912 41.859C44.7767 42.2584 44.4375 42.6414 44.4375 42.7105C44.4375 42.7794 44.7926 43.1723 45.2265 43.5836C45.6604 43.9948 46.1377 44.6077 46.287 44.9453C46.4764 45.3735 46.5674 45.9318 46.5878 46.7913L46.6172 48.0234L47.5312 47.9911C48.034 47.9734 48.7862 48.0271 49.2027 48.1106C49.8829 48.2468 50.0638 48.3692 50.9752 49.3107L51.9902 50.3591L52.7224 49.5138C53.1252 49.049 53.6881 48.5235 53.9734 48.346C54.4234 48.0662 54.6601 48.0262 55.7578 48.0451C56.4539 48.057 57.1009 48.0032 57.1956 47.9254C57.3141 47.8281 57.3415 47.5338 57.2837 46.98C57.2252 46.4209 57.2728 45.9243 57.4397 45.3503C57.6368 44.6721 57.8281 44.3818 58.5117 43.7231C58.9693 43.2823 59.3438 42.8181 59.3438 42.6916C59.3438 42.5652 58.9693 42.0953 58.5114 41.6474C57.8325 40.9829 57.635 40.681 57.4394 40.0082C57.2728 39.435 57.2252 38.9382 57.2837 38.3794C57.3415 37.8253 57.3142 37.5318 57.1956 37.4355C57.1009 37.3587 56.5172 37.3033 55.8984 37.3125C54.9865 37.3261 54.6473 37.2677 54.107 37.0043ZM53.1606 52.0554C52.558 52.4299 52.3654 52.4804 51.7603 52.4223C51.2899 52.3772 50.8946 52.2298 50.5606 51.975L50.0625 51.595V57.9303C50.0625 61.4147 50.0878 64.2656 50.1189 64.2656C50.1498 64.2656 50.5138 64.108 50.9275 63.9155C51.3412 63.7228 51.8062 63.5653 51.9609 63.5653C52.1156 63.5653 52.5807 63.7228 52.9944 63.9155C53.4081 64.108 53.772 64.2656 53.803 64.2656C53.8341 64.2656 53.8594 61.4206 53.8594 57.9433V51.621L53.1606 52.0554Z" fill="#169622"/>
<path fill-rule="evenodd" clip-rule="evenodd" d="M50.9766 38.655C50.7445 38.7162 50.3016 38.8977 49.9922 39.0583C49.6828 39.2189 49.2308 39.5616 48.9878 39.8197C48.7448 40.0778 48.4055 40.5692 48.234 40.9118C48.0624 41.2542 47.8896 41.8915 47.8499 42.328C47.8024 42.8527 47.8588 43.3997 48.0163 43.9417C48.2072 44.5982 48.4163 44.9232 49.0669 45.5737C49.7174 46.2243 50.0424 46.4334 50.699 46.6244C51.2404 46.7817 51.788 46.8382 52.3112 46.7909C52.7527 46.7508 53.4165 46.5604 53.8106 46.3607C54.1994 46.1637 54.7266 45.7643 54.9821 45.4732C55.2378 45.1821 55.5784 44.656 55.7391 44.304C55.9464 43.8504 56.0315 43.3775 56.0315 42.6797C56.0315 41.9819 55.9464 41.509 55.7391 41.0553C55.5784 40.7033 55.2435 40.1839 54.9951 39.9008C54.7466 39.6179 54.2031 39.2199 53.7874 39.0164C53.3167 38.7862 52.7234 38.6272 52.215 38.5951C51.7659 38.5667 51.2086 38.5937 50.9766 38.655ZM53.8594 42.6583C53.8594 41.9338 53.8172 41.831 53.3135 41.3272C52.8096 40.8234 52.7068 40.7813 51.9823 40.7813C51.3053 40.7813 51.1291 40.8412 50.7019 41.2162C50.4295 41.4554 50.1349 41.8902 50.0473 42.1826C49.9278 42.5817 49.929 42.8378 50.0525 43.2118C50.1428 43.4856 50.3805 43.8733 50.5803 44.0733C50.7803 44.2733 51.1747 44.499 51.4568 44.5749C51.7954 44.6662 52.1436 44.665 52.4811 44.5718C52.767 44.4929 53.1837 44.2129 53.426 43.937C53.7993 43.5116 53.8594 43.3347 53.8594 42.6583Z" fill="#169622"/>
</svg>
