<svg width="72" height="72" viewBox="0 0 72 72" fill="none" xmlns="http://www.w3.org/2000/svg">
<path fill-rule="evenodd" clip-rule="evenodd" d="M10.2806 43.5632C10.0925 43.6456 9.81427 43.8783 9.66256 44.0801C9.51074 44.2819 9.26498 44.6934 9.11634 44.9944C8.9677 45.2954 8.74233 45.9358 8.61573 46.4174C8.48901 46.8991 8.29795 47.8842 8.19118 48.6067C8.03323 49.6758 7.9976 50.6435 8.00012 53.8062C8.00286 57.2217 8.03136 57.871 8.23613 59.1699C8.36416 59.9827 8.59545 61.0417 8.75011 61.5234C8.90467 62.005 9.18178 62.6597 9.36583 62.9783C9.54998 63.2969 9.85866 63.6538 10.052 63.7715C10.2453 63.8892 10.5633 63.9857 10.7587 63.9859C10.9541 63.9861 12.1379 63.8409 13.3895 63.6633C14.641 63.4856 16.5776 63.2413 17.6929 63.1202C18.8083 62.9992 20.6087 62.8256 21.6939 62.7344C22.7791 62.6431 24.6289 62.5186 25.8045 62.4577C26.9801 62.3967 28.423 62.3238 29.0108 62.2954C29.5986 62.2672 30.0795 62.2838 30.0795 62.3323C30.0795 62.3809 29.6548 63.4458 29.1355 64.6988C28.2943 66.7291 28.1971 67.0343 28.242 67.5022C28.2752 67.8469 28.3944 68.1605 28.5889 68.4151C28.7517 68.6284 29.0371 68.8814 29.223 68.9774C29.4088 69.0734 29.7885 69.15 30.0668 69.1476C30.3451 69.1453 30.7562 69.0668 30.9803 68.9731C31.2045 68.8793 31.4267 68.8027 31.4743 68.8027C31.5217 68.8027 31.6733 69.048 31.811 69.3478C31.9488 69.6476 32.2357 70.0256 32.4487 70.1878C32.7241 70.3977 33.0059 70.4968 33.426 70.5316C33.9144 70.572 34.0976 70.5328 34.4881 70.3043C34.7571 70.1469 35.0601 69.8472 35.1933 69.607C35.3218 69.3754 35.7609 68.381 36.169 67.3975C36.7127 66.0871 36.9368 65.655 37.007 65.7803C37.0598 65.8746 37.4262 66.7285 37.8214 67.6782C38.2164 68.6278 38.6315 69.5544 38.7437 69.7373C38.8558 69.9202 39.1519 70.1846 39.4016 70.3247C39.7657 70.529 39.9716 70.57 40.4405 70.5311C40.8597 70.4964 41.138 70.3968 41.4235 70.1794C41.6424 70.0126 41.9286 69.647 42.0595 69.3668C42.1903 69.0866 42.3067 68.8408 42.3183 68.8205C42.3298 68.8002 42.6559 68.8904 43.0429 69.021C43.6455 69.2242 43.8124 69.2407 44.204 69.1354C44.4556 69.0677 44.8303 68.8642 45.0368 68.6832C45.2434 68.5021 45.4705 68.1781 45.5415 67.9632C45.6124 67.7485 45.6467 67.3692 45.6177 67.1204C45.5885 66.8717 45.1634 65.7118 44.6729 64.5429C44.1825 63.3741 43.8011 62.3977 43.8256 62.3734C43.85 62.349 44.849 62.3831 46.0455 62.4492C47.242 62.5153 49.1335 62.644 50.2489 62.7351C51.3642 62.8262 53.3866 63.0237 54.7431 63.1739C56.0996 63.3242 58.0234 63.5684 59.0181 63.7167C60.0129 63.8649 60.9995 63.9861 61.2105 63.9859C61.4215 63.9857 61.7523 63.8892 61.9455 63.7715C62.1389 63.6538 62.4476 63.2969 62.6317 62.9783C62.8158 62.6597 63.0929 62.005 63.2475 61.5234C63.4021 61.0417 63.6332 59.9827 63.761 59.1699C63.9639 57.8793 63.9942 57.2067 63.9995 53.8609C64.0046 50.6846 63.9708 49.7865 63.8018 48.6067C63.6895 47.824 63.4791 46.7737 63.3341 46.2727C63.189 45.7716 62.9668 45.1559 62.8403 44.9044C62.7138 44.6529 62.4863 44.2818 62.3345 44.0797C62.1826 43.8777 61.9012 43.6467 61.709 43.5665C61.4062 43.4402 61.1179 43.4556 59.5584 43.6811C58.5679 43.8242 56.697 44.0658 55.4008 44.2179C54.1046 44.37 52.2302 44.5698 51.2354 44.6619C50.2406 44.7539 48.2429 44.9144 46.796 45.0185C44.6643 45.172 42.6368 45.2084 36.1084 45.2106C30.6291 45.2125 27.4028 45.1682 26.0237 45.0722C24.9084 44.9947 23.1079 44.8569 22.0227 44.766C20.9375 44.6751 18.9398 44.4783 17.5833 44.3285C16.2268 44.1788 14.2291 43.9337 13.1439 43.784C12.0587 43.6342 11.0474 43.4895 10.8967 43.4625C10.746 43.4353 10.4688 43.4806 10.2806 43.5632ZM61.319 46.1114C61.4438 46.515 61.6149 47.2415 61.6991 47.726C61.7834 48.2103 61.9031 49.0993 61.9652 49.7013C62.0272 50.3034 62.1095 51.5348 62.1479 52.4379C62.1864 53.341 62.1625 54.9665 62.095 56.0502C62.0274 57.1339 61.8767 58.6117 61.7601 59.3341C61.6434 60.0566 61.4571 60.9432 61.3458 61.3045L61.1436 61.9612L60.6015 61.949C60.3034 61.9422 59.1223 61.8074 57.9768 61.6496C56.8313 61.4917 54.6856 61.2413 53.2085 61.0931C51.7314 60.9449 49.7583 60.7713 48.8239 60.7073C47.8894 60.6434 46.1945 60.545 45.0573 60.4886C43.9202 60.4323 42.9659 60.3622 42.9365 60.333C42.9072 60.3036 42.9934 59.993 43.128 59.6427C43.3041 59.1846 43.3878 58.6824 43.4258 57.8543C43.4574 57.1668 43.4258 56.4481 43.3473 56.0707C43.275 55.723 43.0256 55.0589 42.793 54.595C42.5604 54.1311 42.2021 53.5544 41.9966 53.3136C41.6267 52.8797 41.6227 52.8636 41.5532 51.5075C41.5148 50.7549 41.385 49.543 41.265 48.8144C41.1448 48.0858 41.0155 47.4084 40.9773 47.3092C40.9163 47.1502 41.0226 47.1288 41.8789 47.1283C42.4129 47.1278 43.8117 47.0778 44.9873 47.0171C46.1629 46.9564 48.0867 46.8328 49.2623 46.7426C50.438 46.6523 52.1397 46.504 53.0441 46.4131C53.9484 46.3221 55.6749 46.1237 56.8806 45.9722C58.0864 45.8209 59.4922 45.6307 60.0047 45.5498C60.5171 45.4688 60.9714 45.397 61.0143 45.3901C61.057 45.3832 61.1941 45.7078 61.319 46.1114ZM14.6785 45.9205C15.5828 46.0379 17.3093 46.2351 18.515 46.3584C19.7208 46.4818 21.6692 46.6541 22.8449 46.7413C24.0205 46.8286 26.1909 46.9548 27.668 47.0218C29.145 47.0887 30.4091 47.161 30.4771 47.1824C30.545 47.2037 30.7048 47.7793 30.8321 48.4612C30.9595 49.1433 31.1132 50.1447 31.1736 50.6865C31.2341 51.2283 31.2839 52.2274 31.2844 52.9067C31.2852 53.9983 31.2544 54.2028 31.0194 54.666C30.873 54.9543 30.6757 55.4893 30.5809 55.8549C30.486 56.2205 30.4084 56.9569 30.4084 57.4914C30.4084 58.149 30.4809 58.7102 30.6328 59.2271C30.7563 59.6472 30.8853 60.0772 30.9196 60.1825C30.9761 60.3557 30.8838 60.374 29.9553 60.3742C29.3906 60.3743 27.9913 60.4247 26.8458 60.4861C25.7004 60.5475 23.7766 60.673 22.5708 60.7649C21.3651 60.8569 19.4166 61.0305 18.241 61.1507C17.0654 61.2707 15.3636 61.4651 14.4592 61.5827C13.5549 61.7002 12.7793 61.7964 12.7355 61.7966C12.6918 61.7968 12.7018 61.6769 12.7577 61.5301C12.8136 61.3832 12.9563 60.7551 13.0748 60.1344C13.1933 59.5136 13.3497 58.3517 13.4224 57.5524C13.5089 56.601 13.5346 54.9563 13.4969 52.7907C13.4575 50.5222 13.3828 49.1212 13.2593 48.333C13.1603 47.7009 12.9897 46.8511 12.8803 46.4448C12.7001 45.7751 12.6979 45.7059 12.8579 45.7064C12.9549 45.7066 13.7741 45.8029 14.6785 45.9205ZM10.9964 46.9374C11.1213 47.4942 11.3081 48.4425 11.4114 49.0446C11.5609 49.9164 11.6001 50.8521 11.6042 53.642C11.6084 56.5102 11.5732 57.372 11.4103 58.3987C11.3009 59.0884 11.1067 60.0982 10.9788 60.6427L10.7463 61.6328L10.4991 60.5929C10.3632 60.021 10.1627 58.9373 10.0537 58.1847C9.89593 57.0961 9.85691 56.1564 9.86283 53.5873C9.86853 51.142 9.91457 50.0791 10.0525 49.2087C10.1527 48.5766 10.3421 47.5792 10.4734 46.9921C10.6047 46.4051 10.725 45.9248 10.7406 45.9248C10.7563 45.9248 10.8714 46.3805 10.9964 46.9374ZM39.1331 47.8186C39.207 48.1077 39.3458 48.88 39.4417 49.5352C39.5376 50.1903 39.6161 50.8945 39.6161 51.0999V51.4735L38.9858 51.2525C38.5642 51.1048 37.9744 51.0163 37.2046 50.9852C36.3585 50.9512 35.8671 50.9873 35.3499 51.1215C34.9628 51.222 34.3462 51.4604 33.9797 51.6513C33.6131 51.8423 33.2834 52.0129 33.2469 52.0305C33.2105 52.048 33.146 51.5614 33.1038 50.949C33.0616 50.3367 32.9318 49.3128 32.8155 48.6738C32.6992 48.0349 32.6033 47.4498 32.6023 47.3736C32.601 47.2643 33.2772 47.2413 35.7998 47.2641L38.999 47.2931L39.1331 47.8186ZM37.8843 52.9442C38.2037 53.0119 38.7424 53.2065 39.0812 53.3765C39.4199 53.5465 39.9279 53.9159 40.2099 54.1974C40.4918 54.4791 40.851 54.9619 41.0079 55.2704C41.1649 55.5789 41.3593 56.0776 41.44 56.3786C41.5206 56.6796 41.5866 57.1722 41.5866 57.4732C41.5866 57.7743 41.5206 58.2668 41.44 58.5679C41.3593 58.8689 41.1649 59.3676 41.0079 59.6761C40.851 59.9845 40.4921 60.4672 40.2103 60.7485C39.9286 61.0298 39.4453 61.3883 39.1364 61.5449C38.8275 61.7017 38.3281 61.8959 38.0267 61.9765C37.7252 62.0569 37.232 62.1228 36.9305 62.1228C36.6291 62.1228 36.1358 62.0569 35.8344 61.9765C35.5329 61.8959 35.0335 61.7017 34.7246 61.5449C34.4157 61.3883 33.9322 61.0296 33.6502 60.7481C33.3682 60.4664 32.9944 59.9529 32.8195 59.6069C32.6445 59.2609 32.4404 58.6473 32.366 58.2434C32.2599 57.6688 32.2589 57.3436 32.3611 56.7486C32.4329 56.3303 32.6349 55.7065 32.8099 55.3623C32.9849 55.0182 33.3671 54.4981 33.6591 54.2065C33.9512 53.915 34.4251 53.5566 34.7124 53.4103C34.9996 53.2639 35.4929 53.0747 35.8086 52.9898C36.1242 52.9049 36.5896 52.8322 36.8429 52.8283C37.0962 52.8243 37.5648 52.8764 37.8843 52.9442ZM33.8987 63.2564C34.3002 63.466 34.8381 63.6934 35.0942 63.7614L35.5598 63.8852L35.3884 64.2915C35.2942 64.515 34.8694 65.5352 34.4444 66.5587C34.0196 67.5822 33.6469 68.4615 33.6162 68.5128C33.5856 68.5641 33.3929 68.2193 33.188 67.7466C32.9831 67.2738 32.7301 66.8234 32.6259 66.7456C32.5215 66.6676 32.3299 66.5773 32.2 66.5447C32.0595 66.5094 31.6047 66.6409 31.0765 66.8695C30.5885 67.0807 30.1891 67.2286 30.1891 67.1981C30.1891 67.1676 30.6139 66.1247 31.133 64.8804C31.6522 63.636 32.121 62.5035 32.1748 62.3635L32.2726 62.109L32.7207 62.492C32.9671 62.7027 33.4972 63.0467 33.8987 63.2564ZM42.6518 64.6706C43.2093 66.0035 43.6449 67.1148 43.6196 67.14C43.5943 67.1652 43.2046 67.0325 42.7534 66.8449C42.3024 66.6574 41.8596 66.504 41.7696 66.504C41.6796 66.504 41.4629 66.6243 41.2879 66.7713C41.1129 66.9183 40.8323 67.3616 40.6643 67.7564C40.4962 68.1513 40.3273 68.4737 40.2888 68.4729C40.2505 68.472 39.7917 67.45 39.2695 66.2015L38.3201 63.9316L38.8572 63.7471C39.1527 63.6457 39.6902 63.4052 40.0517 63.2127C40.4134 63.0203 40.8949 62.7019 41.1218 62.505C41.3487 62.3083 41.5577 62.1698 41.5861 62.1972C41.6146 62.2246 42.0942 63.3376 42.6518 64.6706Z" fill="#3B3B3A"/>
<path fill-rule="evenodd" clip-rule="evenodd" d="M30.0799 62.3322C30.0799 62.3809 29.6551 63.4457 29.1359 64.6987C28.2947 66.7291 28.1975 67.0342 28.2424 67.5021C28.2756 67.8468 28.3948 68.1604 28.5892 68.415C28.7521 68.6284 29.0375 68.8813 29.2234 68.9773C29.4092 69.0733 29.7889 69.15 30.0672 69.1475C30.3455 69.1452 30.7566 69.0668 30.9807 68.9731C31.2049 68.8793 31.4271 68.8026 31.4747 68.8026C31.5221 68.8026 31.6737 69.0479 31.8114 69.3478C31.9492 69.6476 32.2361 70.0256 32.449 70.1878C32.7245 70.3976 33.0063 70.4967 33.4264 70.5315C33.9148 70.5719 34.098 70.5327 34.4884 70.3042C34.7574 70.1468 35.0605 69.8471 35.1937 69.607C35.3222 69.3753 35.7613 68.381 36.1694 67.3974C36.7131 66.0871 36.9372 65.6549 37.0074 65.7802C37.0601 65.8745 37.4266 66.7284 37.8218 67.6781C38.2168 68.6277 38.6319 69.5543 38.7441 69.7372C38.8562 69.9201 39.1523 70.1845 39.402 70.3246C39.7661 70.529 39.972 70.5699 40.4409 70.5311C40.8601 70.4964 41.1384 70.3967 41.4238 70.1793C41.6427 70.0125 41.929 69.6469 42.0598 69.3667C42.1907 69.0866 42.3071 68.8407 42.3186 68.8205C42.3301 68.8001 42.6563 68.8903 43.0433 69.0209C43.6459 69.2242 43.8128 69.2406 44.2044 69.1353C44.4559 69.0676 44.8307 68.8641 45.0372 68.6831C45.2437 68.502 45.4709 68.178 45.5419 67.9632C45.6128 67.7484 45.6471 67.3691 45.6181 67.1203C45.5889 66.8716 45.1638 65.7117 44.6733 64.5429C44.1829 63.374 43.8015 62.3976 43.826 62.3733L42.9369 60.3329C42.9076 60.3036 42.9938 59.9929 43.1284 59.6426C43.3045 59.1845 43.3882 58.6823 43.4262 57.8542C43.4578 57.1668 43.4262 56.448 43.3477 56.0706C43.2754 55.723 43.026 55.0588 42.7934 54.5949C42.5608 54.131 42.2025 53.5544 41.997 53.3136C41.2612 52.469 40.746 52.062 39.6165 51.4735L38.9862 51.2525C38.5646 51.1047 37.9748 51.0162 37.2049 50.9852C36.3589 50.9511 35.8675 50.9872 35.3502 51.1214C34.9632 51.2219 34.3466 51.4603 33.98 51.6512C33.6135 51.8423 33.2838 52.0128 33.2473 52.0304C31.5875 53.1699 31.2548 54.2027 31.0198 54.666C30.8734 54.9542 30.6761 55.4893 30.5813 55.8549C30.4864 56.2205 30.4088 56.9568 30.4088 57.4913C30.4088 58.1489 30.4813 58.7101 30.6331 59.227C30.7567 59.6471 30.8857 60.0771 30.92 60.1824C31.0317 60.3085 30.4684 61.5 30.0799 62.3322ZM39.0816 53.3764C38.7427 53.2064 38.2041 53.0119 37.8847 52.9441C37.5651 52.8764 37.0965 52.8243 36.8433 52.8282C36.59 52.8321 36.1246 52.9048 35.809 52.9898C35.4933 53.0746 35 53.2639 34.7128 53.4102C34.4255 53.5566 33.9515 53.915 33.6595 54.2065C33.3675 54.4981 32.9853 55.0181 32.8103 55.3623C32.6353 55.7064 32.4333 56.3303 32.3615 56.7485C32.2593 57.3436 32.2603 57.6688 32.3664 58.2434C32.4408 58.6473 32.6449 59.2608 32.8199 59.6068C32.9948 59.9528 33.3686 60.4663 33.6505 60.748C33.9326 61.0295 34.4161 61.3882 34.725 61.5449C35.0339 61.7016 35.5333 61.8958 35.8347 61.9764C36.1362 62.0568 36.6295 62.1227 36.9309 62.1227C37.2324 62.1227 37.7256 62.0568 38.0271 61.9764C38.3285 61.8958 38.8279 61.7016 39.1368 61.5449C39.4457 61.3882 39.929 61.0297 40.2107 60.7484C40.4924 60.4671 40.8514 59.9845 41.0083 59.676C41.1653 59.3675 41.3597 58.8688 41.4404 58.5678C41.521 58.2668 41.587 57.7742 41.587 57.4732C41.587 57.1721 41.521 56.6796 41.4404 56.3785C41.3597 56.0775 41.1653 55.5788 41.0083 55.2703C40.8514 54.9619 40.4922 54.479 40.2103 54.1974C39.9282 53.9158 39.4203 53.5464 39.0816 53.3764ZM35.0946 63.7613C34.8384 63.6933 34.3006 63.466 33.899 63.2563C33.4976 63.0466 32.9675 62.7027 32.7211 62.492L32.273 62.1089L32.1752 62.3634C32.1214 62.5034 31.6526 63.636 31.1334 64.8803C30.6143 66.1246 30.1895 67.1676 30.1895 67.198C30.1895 67.2285 30.5889 67.0807 31.0769 66.8694C31.6051 66.6408 32.0599 66.5094 32.2004 66.5446C32.3303 66.5772 32.5219 66.6675 32.6263 66.7455C32.7305 66.8233 32.9835 67.2738 33.1884 67.7465C33.3933 68.2192 33.586 68.564 33.6166 68.5128C33.6472 68.4614 34.0199 67.5821 34.4448 66.5586C34.8698 65.5351 35.2946 64.5149 35.3888 64.2914L35.5602 63.8851L35.0946 63.7613ZM43.62 67.1399C43.6453 67.1147 43.2097 66.0034 42.6522 64.6705C42.0946 63.3376 41.615 62.2245 41.5865 62.1972C41.5581 62.1697 41.3491 62.3083 41.1222 62.505C40.8953 62.7018 40.4137 63.0202 40.0521 63.2127C39.6906 63.4051 39.153 63.6456 38.8576 63.7471L38.3205 63.9315L39.2699 66.2015C39.7921 67.4499 40.2508 68.4719 40.2892 68.4728C40.3277 68.4736 40.4966 68.1512 40.6646 67.7564C40.8327 67.3615 41.1133 66.9182 41.2883 66.7712C41.4633 66.6242 41.68 66.5039 41.77 66.5039C41.86 66.5039 42.3027 66.6574 42.7538 66.8449C43.205 67.0324 43.5947 67.1652 43.62 67.1399Z" fill="#169622"/>
<path fill-rule="evenodd" clip-rule="evenodd" d="M35.2937 1.60258C34.9449 1.7227 28.0563 4.33009 19.9857 7.39678C10.545 10.9841 5.20775 13.0757 5.01972 13.2616C4.85895 13.4207 4.72754 13.704 4.72754 13.8913C4.72754 14.092 4.87415 14.3745 5.08464 14.5793C5.31514 14.8035 6.78784 15.4789 9.23901 16.4846L13.0364 18.0427L13.0373 27.028L13.0384 36.0132L13.3331 36.3561C13.563 36.6232 13.9133 36.768 14.9239 37.0129C15.6366 37.1857 17.3885 37.5592 18.817 37.8428C20.2454 38.1263 22.12 38.4765 22.9829 38.6208C23.8458 38.7652 25.6865 39.0263 27.0734 39.2011C28.4602 39.3759 30.4424 39.5938 31.478 39.6854C32.5136 39.777 34.9971 39.8483 36.9969 39.8437C39.4998 39.838 41.2803 39.7656 42.7105 39.6112C43.8533 39.4878 45.5479 39.2756 46.4764 39.1398C47.4049 39.0038 48.442 38.8399 48.7813 38.7755L49.3982 38.6584L51.4759 38.2648L52.0355 38.1809C52.3433 38.1347 53.8704 37.7823 55.4291 37.3975C56.9877 37.0127 58.3472 36.614 58.4501 36.511C58.5529 36.4081 58.6898 36.0967 58.7543 35.8188C58.8187 35.5409 58.8729 31.4251 58.8746 26.6725L58.8777 18.0315L62.6111 16.4931C64.6645 15.6469 66.4786 14.8722 66.6424 14.7713C66.8063 14.6704 66.994 14.4471 67.0594 14.2749C67.1351 14.0756 67.128 13.8171 67.0395 13.5635C66.9631 13.3445 66.7448 13.0846 66.5543 12.9861C66.3638 12.8875 59.5477 10.2818 51.4077 7.19537C43.2675 4.10894 36.4545 1.53882 36.2676 1.48402C36.0484 1.41962 35.7028 1.46169 35.2937 1.60258ZM63.0315 13.9522C63.032 13.9165 57.0332 11.6113 49.7007 8.82961C42.3682 6.04796 36.2181 3.75443 36.0336 3.73301C35.8314 3.7095 30.9561 5.49763 23.7515 8.23786C17.1808 10.7371 11.1474 13.0305 10.3438 13.3345C9.54041 13.6386 8.88308 13.9208 8.88295 13.9618C8.88295 14.0028 14.9389 16.5398 22.3406 19.5998C29.7423 22.6596 35.87 25.1631 35.9575 25.1631C36.045 25.1631 38.7234 24.087 41.9095 22.7716C45.0956 21.4562 47.7029 20.3509 47.7034 20.3152C47.7039 20.2794 45.2366 19.1724 42.2207 17.855C39.2048 16.5378 36.3185 15.2645 35.8067 15.0257C35.0836 14.6883 34.8472 14.5085 34.7462 14.2185C34.6459 13.9312 34.6658 13.7462 34.8325 13.4147C34.976 13.1292 35.1871 12.9452 35.4587 12.8685C35.8258 12.765 36.4591 13.012 41.562 15.2495C44.6935 16.6224 47.9964 18.0689 48.9018 18.4635L50.5483 19.1812L56.7895 16.5992C60.2221 15.1791 63.031 13.9879 63.0315 13.9522ZM33.0718 26.3391C31.5881 25.7241 26.9953 23.8249 22.8655 22.1187C18.7357 20.4125 15.3314 19.0166 15.3003 19.0166C15.2693 19.0166 15.259 22.5944 15.2773 26.9673L15.3108 34.9179L16.0251 35.0815C16.4179 35.1715 18.0432 35.5093 19.6367 35.832C21.2303 36.1547 23.7431 36.5919 25.2206 36.8034C26.6981 37.0149 28.8419 37.2915 29.9846 37.4182C31.5835 37.5951 33.1396 37.6485 36.7372 37.6496C39.7426 37.6505 41.9221 37.5911 42.8404 37.4832C43.626 37.391 45.0869 37.1993 46.0868 37.0574C47.0867 36.9155 48.2409 36.735 48.6515 36.6564L49.3982 36.5134V29.2584C49.3982 25.268 49.3765 22.0033 49.3501 22.0033C49.3236 22.0033 46.3386 23.2304 42.7167 24.7303C39.0948 26.2301 36.05 27.4573 35.9505 27.4573C35.851 27.4573 34.5556 26.9541 33.0718 26.3391ZM56.6052 34.9144L56.6387 26.9655C56.6653 20.6434 56.6387 19.0194 56.5088 19.0305C56.419 19.0381 55.2883 19.491 53.9962 20.0369L51.6469 21.0294L51.5614 26.0826C51.5143 28.8618 51.4759 32.2431 51.4759 33.5965V36.0573L52.0744 35.9675C52.4036 35.9182 53.5576 35.6611 54.639 35.3962L56.6052 34.9144Z" fill="#3B3B3A"/>
<path fill-rule="evenodd" clip-rule="evenodd" d="M49.3984 29.5674V31.6774V33.7875L47.2558 38.392C46.0774 40.9246 45.1132 43.1199 45.1132 43.2702C45.1132 43.4207 45.2542 43.7079 45.4264 43.9082L45.7397 44.2726L49.9389 44.3118C52.2485 44.3335 54.3314 44.3156 54.5675 44.2722C54.8036 44.2287 55.1103 44.0796 55.2492 43.9407C55.3925 43.7975 55.5017 43.5112 55.5017 43.2791C55.5017 43.0364 54.6824 40.9888 53.4881 38.2471L51.4747 33.6244L51.4754 31.3992L51.4761 29.1738V26.9662V24.5055C51.4761 23.1521 51.5146 28.8617 51.5617 26.0825L51.6472 21.0293L50.5486 19.1811L48.9021 18.4634C47.9966 18.0688 44.6937 16.6223 41.5623 15.2493C36.4594 13.0119 35.8261 12.7649 35.459 12.8684C35.1873 12.945 34.9763 13.1291 34.8328 13.4146C34.6661 13.7461 34.6462 13.931 34.7465 14.2184C34.8475 14.5084 35.0838 14.6882 35.807 15.0256C36.3188 15.2644 39.2051 16.5377 42.221 17.8549C45.2369 19.1723 47.7042 20.2793 47.7037 20.315L49.3504 22.0032C49.3767 22.0032 49.3984 25.2679 49.3984 29.2583V27.4224V29.5674ZM52.7435 42.0746C52.7772 42.041 52.2866 40.8139 51.6534 39.3478C51.0202 37.8816 50.473 36.6826 50.4373 36.6831C50.4016 36.6838 49.8127 37.895 49.1285 39.3747L47.8847 42.065L50.2834 42.1005C51.6027 42.12 52.7098 42.1083 52.7435 42.0746Z" fill="#169622"/>
</svg>
