<svg width="72" height="72" viewBox="0 0 72 72" fill="none" xmlns="http://www.w3.org/2000/svg">
<path fill-rule="evenodd" clip-rule="evenodd" d="M44.209 8.28571H24.253C18.076 8.28571 12.751 13.2927 12.751 19.4727V52.0197C12.751 58.5477 17.725 63.3447 24.253 63.3447H48.217C54.397 63.3447 59.407 58.1997 59.407 52.0197V24.1137L44.209 8.28571Z" stroke="#3B3B3A" stroke-width="3" stroke-linecap="round" stroke-linejoin="round"/>
<path d="M43.4209 8.25061V16.9776C43.4209 21.2376 46.8679 24.6936 51.1279 24.7026C55.0759 24.7116 59.1169 24.7146 59.3899 24.6966" stroke="#169622" stroke-width="3" stroke-linecap="round" stroke-linejoin="round"/>
<path fill-rule="evenodd" clip-rule="evenodd" d="M37.0312 31.3933C37.0312 30.5649 36.3596 29.8933 35.5312 29.8933C34.7028 29.8933 34.0312 30.5649 34.0312 31.3933V37.2424H28.1804C27.352 37.2424 26.6804 37.914 26.6804 38.7424C26.6804 39.5709 27.352 40.2424 28.1804 40.2424H34.0312V46.0963C34.0312 46.9247 34.7028 47.5963 35.5312 47.5963C36.3596 47.5963 37.0312 46.9247 37.0312 46.0963V40.2424H42.8834C43.7118 40.2424 44.3834 39.5709 44.3834 38.7424C44.3834 37.914 43.7118 37.2424 42.8834 37.2424H37.0312V31.3933Z" fill="#169622"/>
</svg>
